%TF.GenerationSoftware,KiCad,Pcbnew,9.0.2*%
%TF.CreationDate,2025-06-03T16:13:35-04:00*%
%TF.ProjectId,athena workshop,61746865-6e61-4207-976f-726b73686f70,rev?*%
%TF.SameCoordinates,Original*%
%TF.FileFunction,Copper,L1,Top*%
%TF.FilePolarity,Positive*%
%FSLAX46Y46*%
G04 Gerber Fmt 4.6, Leading zero omitted, Abs format (unit mm)*
G04 Created by KiCad (PCBNEW 9.0.2) date 2025-06-03 16:13:35*
%MOMM*%
%LPD*%
G01*
G04 APERTURE LIST*
%TA.AperFunction,ComponentPad*%
%ADD10C,2.000000*%
%TD*%
%TA.AperFunction,ComponentPad*%
%ADD11R,1.800000X1.800000*%
%TD*%
%TA.AperFunction,ComponentPad*%
%ADD12C,1.800000*%
%TD*%
%TA.AperFunction,ComponentPad*%
%ADD13C,1.600000*%
%TD*%
%TA.AperFunction,Conductor*%
%ADD14C,0.200000*%
%TD*%
G04 APERTURE END LIST*
D10*
%TO.P,SW1,1,1*%
%TO.N,Net-(BT1-+)*%
X123250000Y-47250000D03*
X129750000Y-47250000D03*
%TO.P,SW1,2,2*%
%TO.N,Net-(D1-A)*%
X123250000Y-51750000D03*
X129750000Y-51750000D03*
%TD*%
D11*
%TO.P,D2,1,K*%
%TO.N,Net-(D2-K)*%
X134725000Y-40500000D03*
D12*
%TO.P,D2,2,A*%
%TO.N,Net-(D1-A)*%
X137265000Y-40500000D03*
%TD*%
D13*
%TO.P,R2,1*%
%TO.N,Net-(D2-K)*%
X119000000Y-59000000D03*
%TO.P,R2,2*%
%TO.N,Net-(BT1--)*%
X126620000Y-59000000D03*
%TD*%
D11*
%TO.P,D1,1,K*%
%TO.N,Net-(D1-K)*%
X114225000Y-42500000D03*
D12*
%TO.P,D1,2,A*%
%TO.N,Net-(D1-A)*%
X116765000Y-42500000D03*
%TD*%
D13*
%TO.P,R1,1*%
%TO.N,Net-(D1-K)*%
X129000000Y-59000000D03*
%TO.P,R1,2*%
%TO.N,Net-(BT1--)*%
X136620000Y-59000000D03*
%TD*%
D14*
%TO.N,Net-(BT1-+)*%
X123250000Y-47250000D02*
X129750000Y-47250000D01*
%TO.N,Net-(BT1--)*%
X127721000Y-57899000D02*
X126620000Y-59000000D01*
X135519000Y-57899000D02*
X127031000Y-57899000D01*
X136620000Y-59000000D02*
X135519000Y-57899000D01*
%TO.N,Net-(D1-A)*%
X137265000Y-45500000D02*
X137265000Y-49235000D01*
X127406992Y-52000000D02*
X125453496Y-53953496D01*
X123250000Y-51750000D02*
X116765000Y-45265000D01*
X137265000Y-44235000D02*
X129750000Y-51750000D01*
X128750000Y-51750000D02*
X127656992Y-51750000D01*
X127546504Y-53953496D02*
X125453496Y-53953496D01*
X127656992Y-51750000D02*
X125453496Y-53953496D01*
X129750000Y-51750000D02*
X130000000Y-52000000D01*
X130000000Y-52000000D02*
X129000000Y-52000000D01*
X116765000Y-45265000D02*
X116765000Y-42500000D01*
X129000000Y-52000000D02*
X127406992Y-52000000D01*
X129000000Y-52000000D02*
X128750000Y-51750000D01*
X129750000Y-51750000D02*
X127546504Y-53953496D01*
%TO.N,Net-(D1-K)*%
X127899000Y-60101000D02*
X129000000Y-59000000D01*
X114225000Y-47500000D02*
X114225000Y-61472050D01*
X117853950Y-60101000D02*
X127899000Y-60101000D01*
X114225000Y-56472050D02*
X117853950Y-60101000D01*
%TO.N,Net-(D2-K)*%
X119839892Y-59000000D02*
X134725000Y-44114892D01*
X134725000Y-44114892D02*
X134725000Y-40500000D01*
X119000000Y-59000000D02*
X119000000Y-60529892D01*
%TD*%
M02*
