%TF.GenerationSoftware,KiCad,Pcbnew,9.0.2*%
%TF.CreationDate,2025-06-03T16:13:35-04:00*%
%TF.ProjectId,athena workshop,61746865-6e61-4207-976f-726b73686f70,rev?*%
%TF.SameCoordinates,Original*%
%TF.FileFunction,Legend,Top*%
%TF.FilePolarity,Positive*%
%FSLAX46Y46*%
G04 Gerber Fmt 4.6, Leading zero omitted, Abs format (unit mm)*
G04 Created by KiCad (PCBNEW 9.0.2) date 2025-06-03 16:13:35*
%MOMM*%
%LPD*%
G01*
G04 APERTURE LIST*
%ADD10C,0.400000*%
%ADD11C,0.150000*%
%ADD12C,0.120000*%
G04 APERTURE END LIST*
D10*
X111882204Y-85734438D02*
X111215537Y-84782057D01*
X110739347Y-85734438D02*
X110739347Y-83734438D01*
X110739347Y-83734438D02*
X111501252Y-83734438D01*
X111501252Y-83734438D02*
X111691728Y-83829676D01*
X111691728Y-83829676D02*
X111786966Y-83924914D01*
X111786966Y-83924914D02*
X111882204Y-84115390D01*
X111882204Y-84115390D02*
X111882204Y-84401104D01*
X111882204Y-84401104D02*
X111786966Y-84591580D01*
X111786966Y-84591580D02*
X111691728Y-84686819D01*
X111691728Y-84686819D02*
X111501252Y-84782057D01*
X111501252Y-84782057D02*
X110739347Y-84782057D01*
X113596490Y-84401104D02*
X113596490Y-85734438D01*
X112739347Y-84401104D02*
X112739347Y-85448723D01*
X112739347Y-85448723D02*
X112834585Y-85639200D01*
X112834585Y-85639200D02*
X113025061Y-85734438D01*
X113025061Y-85734438D02*
X113310776Y-85734438D01*
X113310776Y-85734438D02*
X113501252Y-85639200D01*
X113501252Y-85639200D02*
X113596490Y-85543961D01*
X114358395Y-84401104D02*
X115406014Y-84401104D01*
X115406014Y-84401104D02*
X114358395Y-85734438D01*
X114358395Y-85734438D02*
X115406014Y-85734438D01*
X117025062Y-85734438D02*
X117025062Y-84686819D01*
X117025062Y-84686819D02*
X116929824Y-84496342D01*
X116929824Y-84496342D02*
X116739348Y-84401104D01*
X116739348Y-84401104D02*
X116358395Y-84401104D01*
X116358395Y-84401104D02*
X116167919Y-84496342D01*
X117025062Y-85639200D02*
X116834586Y-85734438D01*
X116834586Y-85734438D02*
X116358395Y-85734438D01*
X116358395Y-85734438D02*
X116167919Y-85639200D01*
X116167919Y-85639200D02*
X116072681Y-85448723D01*
X116072681Y-85448723D02*
X116072681Y-85258247D01*
X116072681Y-85258247D02*
X116167919Y-85067771D01*
X116167919Y-85067771D02*
X116358395Y-84972533D01*
X116358395Y-84972533D02*
X116834586Y-84972533D01*
X116834586Y-84972533D02*
X117025062Y-84877295D01*
X117977443Y-84401104D02*
X117977443Y-85734438D01*
X117977443Y-84591580D02*
X118072681Y-84496342D01*
X118072681Y-84496342D02*
X118263157Y-84401104D01*
X118263157Y-84401104D02*
X118548872Y-84401104D01*
X118548872Y-84401104D02*
X118739348Y-84496342D01*
X118739348Y-84496342D02*
X118834586Y-84686819D01*
X118834586Y-84686819D02*
X118834586Y-85734438D01*
X119786967Y-84401104D02*
X119786967Y-85734438D01*
X119786967Y-84591580D02*
X119882205Y-84496342D01*
X119882205Y-84496342D02*
X120072681Y-84401104D01*
X120072681Y-84401104D02*
X120358396Y-84401104D01*
X120358396Y-84401104D02*
X120548872Y-84496342D01*
X120548872Y-84496342D02*
X120644110Y-84686819D01*
X120644110Y-84686819D02*
X120644110Y-85734438D01*
X122453634Y-85734438D02*
X122453634Y-84686819D01*
X122453634Y-84686819D02*
X122358396Y-84496342D01*
X122358396Y-84496342D02*
X122167920Y-84401104D01*
X122167920Y-84401104D02*
X121786967Y-84401104D01*
X121786967Y-84401104D02*
X121596491Y-84496342D01*
X122453634Y-85639200D02*
X122263158Y-85734438D01*
X122263158Y-85734438D02*
X121786967Y-85734438D01*
X121786967Y-85734438D02*
X121596491Y-85639200D01*
X121596491Y-85639200D02*
X121501253Y-85448723D01*
X121501253Y-85448723D02*
X121501253Y-85258247D01*
X121501253Y-85258247D02*
X121596491Y-85067771D01*
X121596491Y-85067771D02*
X121786967Y-84972533D01*
X121786967Y-84972533D02*
X122263158Y-84972533D01*
X122263158Y-84972533D02*
X122453634Y-84877295D01*
X123501253Y-83734438D02*
X123310777Y-84115390D01*
X124263158Y-85639200D02*
X124453634Y-85734438D01*
X124453634Y-85734438D02*
X124834586Y-85734438D01*
X124834586Y-85734438D02*
X125025063Y-85639200D01*
X125025063Y-85639200D02*
X125120301Y-85448723D01*
X125120301Y-85448723D02*
X125120301Y-85353485D01*
X125120301Y-85353485D02*
X125025063Y-85163009D01*
X125025063Y-85163009D02*
X124834586Y-85067771D01*
X124834586Y-85067771D02*
X124548872Y-85067771D01*
X124548872Y-85067771D02*
X124358396Y-84972533D01*
X124358396Y-84972533D02*
X124263158Y-84782057D01*
X124263158Y-84782057D02*
X124263158Y-84686819D01*
X124263158Y-84686819D02*
X124358396Y-84496342D01*
X124358396Y-84496342D02*
X124548872Y-84401104D01*
X124548872Y-84401104D02*
X124834586Y-84401104D01*
X124834586Y-84401104D02*
X125025063Y-84496342D01*
X128644111Y-85543961D02*
X128548873Y-85639200D01*
X128548873Y-85639200D02*
X128263159Y-85734438D01*
X128263159Y-85734438D02*
X128072683Y-85734438D01*
X128072683Y-85734438D02*
X127786968Y-85639200D01*
X127786968Y-85639200D02*
X127596492Y-85448723D01*
X127596492Y-85448723D02*
X127501254Y-85258247D01*
X127501254Y-85258247D02*
X127406016Y-84877295D01*
X127406016Y-84877295D02*
X127406016Y-84591580D01*
X127406016Y-84591580D02*
X127501254Y-84210628D01*
X127501254Y-84210628D02*
X127596492Y-84020152D01*
X127596492Y-84020152D02*
X127786968Y-83829676D01*
X127786968Y-83829676D02*
X128072683Y-83734438D01*
X128072683Y-83734438D02*
X128263159Y-83734438D01*
X128263159Y-83734438D02*
X128548873Y-83829676D01*
X128548873Y-83829676D02*
X128644111Y-83924914D01*
X130358397Y-85734438D02*
X130358397Y-84686819D01*
X130358397Y-84686819D02*
X130263159Y-84496342D01*
X130263159Y-84496342D02*
X130072683Y-84401104D01*
X130072683Y-84401104D02*
X129691730Y-84401104D01*
X129691730Y-84401104D02*
X129501254Y-84496342D01*
X130358397Y-85639200D02*
X130167921Y-85734438D01*
X130167921Y-85734438D02*
X129691730Y-85734438D01*
X129691730Y-85734438D02*
X129501254Y-85639200D01*
X129501254Y-85639200D02*
X129406016Y-85448723D01*
X129406016Y-85448723D02*
X129406016Y-85258247D01*
X129406016Y-85258247D02*
X129501254Y-85067771D01*
X129501254Y-85067771D02*
X129691730Y-84972533D01*
X129691730Y-84972533D02*
X130167921Y-84972533D01*
X130167921Y-84972533D02*
X130358397Y-84877295D01*
X131025064Y-84401104D02*
X131786968Y-84401104D01*
X131310778Y-83734438D02*
X131310778Y-85448723D01*
X131310778Y-85448723D02*
X131406016Y-85639200D01*
X131406016Y-85639200D02*
X131596492Y-85734438D01*
X131596492Y-85734438D02*
X131786968Y-85734438D01*
X132453635Y-85543961D02*
X132548873Y-85639200D01*
X132548873Y-85639200D02*
X132453635Y-85734438D01*
X132453635Y-85734438D02*
X132358397Y-85639200D01*
X132358397Y-85639200D02*
X132453635Y-85543961D01*
X132453635Y-85543961D02*
X132453635Y-85734438D01*
X132453635Y-84972533D02*
X132358397Y-83829676D01*
X132358397Y-83829676D02*
X132453635Y-83734438D01*
X132453635Y-83734438D02*
X132548873Y-83829676D01*
X132548873Y-83829676D02*
X132453635Y-84972533D01*
X132453635Y-84972533D02*
X132453635Y-83734438D01*
D11*
X133666666Y-149504819D02*
X133333333Y-149028628D01*
X133095238Y-149504819D02*
X133095238Y-148504819D01*
X133095238Y-148504819D02*
X133476190Y-148504819D01*
X133476190Y-148504819D02*
X133571428Y-148552438D01*
X133571428Y-148552438D02*
X133619047Y-148600057D01*
X133619047Y-148600057D02*
X133666666Y-148695295D01*
X133666666Y-148695295D02*
X133666666Y-148838152D01*
X133666666Y-148838152D02*
X133619047Y-148933390D01*
X133619047Y-148933390D02*
X133571428Y-148981009D01*
X133571428Y-148981009D02*
X133476190Y-149028628D01*
X133476190Y-149028628D02*
X133095238Y-149028628D01*
X134095238Y-148981009D02*
X134428571Y-148981009D01*
X134571428Y-149504819D02*
X134095238Y-149504819D01*
X134095238Y-149504819D02*
X134095238Y-148504819D01*
X134095238Y-148504819D02*
X134571428Y-148504819D01*
X135333333Y-148981009D02*
X135000000Y-148981009D01*
X135000000Y-149504819D02*
X135000000Y-148504819D01*
X135000000Y-148504819D02*
X135476190Y-148504819D01*
X136000000Y-148504819D02*
X136000000Y-148742914D01*
X135761905Y-148647676D02*
X136000000Y-148742914D01*
X136000000Y-148742914D02*
X136238095Y-148647676D01*
X135857143Y-148933390D02*
X136000000Y-148742914D01*
X136000000Y-148742914D02*
X136142857Y-148933390D01*
X136761905Y-148504819D02*
X136761905Y-148742914D01*
X136523810Y-148647676D02*
X136761905Y-148742914D01*
X136761905Y-148742914D02*
X137000000Y-148647676D01*
X136619048Y-148933390D02*
X136761905Y-148742914D01*
X136761905Y-148742914D02*
X136904762Y-148933390D01*
X125166667Y-45657200D02*
X125309524Y-45704819D01*
X125309524Y-45704819D02*
X125547619Y-45704819D01*
X125547619Y-45704819D02*
X125642857Y-45657200D01*
X125642857Y-45657200D02*
X125690476Y-45609580D01*
X125690476Y-45609580D02*
X125738095Y-45514342D01*
X125738095Y-45514342D02*
X125738095Y-45419104D01*
X125738095Y-45419104D02*
X125690476Y-45323866D01*
X125690476Y-45323866D02*
X125642857Y-45276247D01*
X125642857Y-45276247D02*
X125547619Y-45228628D01*
X125547619Y-45228628D02*
X125357143Y-45181009D01*
X125357143Y-45181009D02*
X125261905Y-45133390D01*
X125261905Y-45133390D02*
X125214286Y-45085771D01*
X125214286Y-45085771D02*
X125166667Y-44990533D01*
X125166667Y-44990533D02*
X125166667Y-44895295D01*
X125166667Y-44895295D02*
X125214286Y-44800057D01*
X125214286Y-44800057D02*
X125261905Y-44752438D01*
X125261905Y-44752438D02*
X125357143Y-44704819D01*
X125357143Y-44704819D02*
X125595238Y-44704819D01*
X125595238Y-44704819D02*
X125738095Y-44752438D01*
X126071429Y-44704819D02*
X126309524Y-45704819D01*
X126309524Y-45704819D02*
X126500000Y-44990533D01*
X126500000Y-44990533D02*
X126690476Y-45704819D01*
X126690476Y-45704819D02*
X126928572Y-44704819D01*
X127833333Y-45704819D02*
X127261905Y-45704819D01*
X127547619Y-45704819D02*
X127547619Y-44704819D01*
X127547619Y-44704819D02*
X127452381Y-44847676D01*
X127452381Y-44847676D02*
X127357143Y-44942914D01*
X127357143Y-44942914D02*
X127261905Y-44990533D01*
X135256905Y-36994819D02*
X135256905Y-35994819D01*
X135256905Y-35994819D02*
X135495000Y-35994819D01*
X135495000Y-35994819D02*
X135637857Y-36042438D01*
X135637857Y-36042438D02*
X135733095Y-36137676D01*
X135733095Y-36137676D02*
X135780714Y-36232914D01*
X135780714Y-36232914D02*
X135828333Y-36423390D01*
X135828333Y-36423390D02*
X135828333Y-36566247D01*
X135828333Y-36566247D02*
X135780714Y-36756723D01*
X135780714Y-36756723D02*
X135733095Y-36851961D01*
X135733095Y-36851961D02*
X135637857Y-36947200D01*
X135637857Y-36947200D02*
X135495000Y-36994819D01*
X135495000Y-36994819D02*
X135256905Y-36994819D01*
X136209286Y-36090057D02*
X136256905Y-36042438D01*
X136256905Y-36042438D02*
X136352143Y-35994819D01*
X136352143Y-35994819D02*
X136590238Y-35994819D01*
X136590238Y-35994819D02*
X136685476Y-36042438D01*
X136685476Y-36042438D02*
X136733095Y-36090057D01*
X136733095Y-36090057D02*
X136780714Y-36185295D01*
X136780714Y-36185295D02*
X136780714Y-36280533D01*
X136780714Y-36280533D02*
X136733095Y-36423390D01*
X136733095Y-36423390D02*
X136161667Y-36994819D01*
X136161667Y-36994819D02*
X136780714Y-36994819D01*
X122643333Y-57084819D02*
X122310000Y-56608628D01*
X122071905Y-57084819D02*
X122071905Y-56084819D01*
X122071905Y-56084819D02*
X122452857Y-56084819D01*
X122452857Y-56084819D02*
X122548095Y-56132438D01*
X122548095Y-56132438D02*
X122595714Y-56180057D01*
X122595714Y-56180057D02*
X122643333Y-56275295D01*
X122643333Y-56275295D02*
X122643333Y-56418152D01*
X122643333Y-56418152D02*
X122595714Y-56513390D01*
X122595714Y-56513390D02*
X122548095Y-56561009D01*
X122548095Y-56561009D02*
X122452857Y-56608628D01*
X122452857Y-56608628D02*
X122071905Y-56608628D01*
X123024286Y-56180057D02*
X123071905Y-56132438D01*
X123071905Y-56132438D02*
X123167143Y-56084819D01*
X123167143Y-56084819D02*
X123405238Y-56084819D01*
X123405238Y-56084819D02*
X123500476Y-56132438D01*
X123500476Y-56132438D02*
X123548095Y-56180057D01*
X123548095Y-56180057D02*
X123595714Y-56275295D01*
X123595714Y-56275295D02*
X123595714Y-56370533D01*
X123595714Y-56370533D02*
X123548095Y-56513390D01*
X123548095Y-56513390D02*
X122976667Y-57084819D01*
X122976667Y-57084819D02*
X123595714Y-57084819D01*
X114756905Y-38994819D02*
X114756905Y-37994819D01*
X114756905Y-37994819D02*
X114995000Y-37994819D01*
X114995000Y-37994819D02*
X115137857Y-38042438D01*
X115137857Y-38042438D02*
X115233095Y-38137676D01*
X115233095Y-38137676D02*
X115280714Y-38232914D01*
X115280714Y-38232914D02*
X115328333Y-38423390D01*
X115328333Y-38423390D02*
X115328333Y-38566247D01*
X115328333Y-38566247D02*
X115280714Y-38756723D01*
X115280714Y-38756723D02*
X115233095Y-38851961D01*
X115233095Y-38851961D02*
X115137857Y-38947200D01*
X115137857Y-38947200D02*
X114995000Y-38994819D01*
X114995000Y-38994819D02*
X114756905Y-38994819D01*
X116280714Y-38994819D02*
X115709286Y-38994819D01*
X115995000Y-38994819D02*
X115995000Y-37994819D01*
X115995000Y-37994819D02*
X115899762Y-38137676D01*
X115899762Y-38137676D02*
X115804524Y-38232914D01*
X115804524Y-38232914D02*
X115709286Y-38280533D01*
X132643333Y-57084819D02*
X132310000Y-56608628D01*
X132071905Y-57084819D02*
X132071905Y-56084819D01*
X132071905Y-56084819D02*
X132452857Y-56084819D01*
X132452857Y-56084819D02*
X132548095Y-56132438D01*
X132548095Y-56132438D02*
X132595714Y-56180057D01*
X132595714Y-56180057D02*
X132643333Y-56275295D01*
X132643333Y-56275295D02*
X132643333Y-56418152D01*
X132643333Y-56418152D02*
X132595714Y-56513390D01*
X132595714Y-56513390D02*
X132548095Y-56561009D01*
X132548095Y-56561009D02*
X132452857Y-56608628D01*
X132452857Y-56608628D02*
X132071905Y-56608628D01*
X133595714Y-57084819D02*
X133024286Y-57084819D01*
X133310000Y-57084819D02*
X133310000Y-56084819D01*
X133310000Y-56084819D02*
X133214762Y-56227676D01*
X133214762Y-56227676D02*
X133119524Y-56322914D01*
X133119524Y-56322914D02*
X133024286Y-56370533D01*
D12*
%TO.C,SW1*%
X123000000Y-48750000D02*
X123000000Y-50250000D01*
X124250000Y-52750000D02*
X128750000Y-52750000D01*
X128750000Y-46250000D02*
X124250000Y-46250000D01*
X130000000Y-50250000D02*
X130000000Y-48750000D01*
%TO.C,D2*%
X133435000Y-38955000D02*
X133435000Y-42045000D01*
X133435000Y-38955170D02*
G75*
G02*
X138985000Y-40500000I2560000J-1544830D01*
G01*
X138985000Y-40500000D02*
G75*
G02*
X133435000Y-42044830I-2990000J0D01*
G01*
X138495000Y-40500000D02*
G75*
G02*
X133495000Y-40500000I-2500000J0D01*
G01*
X133495000Y-40500000D02*
G75*
G02*
X138495000Y-40500000I2500000J0D01*
G01*
%TO.C,R2*%
X119540000Y-57630000D02*
X126080000Y-57630000D01*
X119540000Y-57960000D02*
X119540000Y-57630000D01*
X119540000Y-60040000D02*
X119540000Y-60370000D01*
X119540000Y-60370000D02*
X126080000Y-60370000D01*
X126080000Y-57630000D02*
X126080000Y-57960000D01*
X126080000Y-60370000D02*
X126080000Y-60040000D01*
%TO.C,D1*%
X112935000Y-40955000D02*
X112935000Y-44045000D01*
X112935000Y-40955170D02*
G75*
G02*
X118485000Y-42500000I2560000J-1544830D01*
G01*
X118485000Y-42500000D02*
G75*
G02*
X112935000Y-44044830I-2990000J0D01*
G01*
X117995000Y-42500000D02*
G75*
G02*
X112995000Y-42500000I-2500000J0D01*
G01*
X112995000Y-42500000D02*
G75*
G02*
X117995000Y-42500000I2500000J0D01*
G01*
%TO.C,R1*%
X129540000Y-57630000D02*
X136080000Y-57630000D01*
X129540000Y-57960000D02*
X129540000Y-57630000D01*
X129540000Y-60040000D02*
X129540000Y-60370000D01*
X129540000Y-60370000D02*
X136080000Y-60370000D01*
X136080000Y-57630000D02*
X136080000Y-57960000D01*
X136080000Y-60370000D02*
X136080000Y-60040000D01*
%TD*%
M02*
