%TF.GenerationSoftware,KiCad,Pcbnew,9.0.2*%
%TF.CreationDate,2025-06-03T16:13:35-04:00*%
%TF.ProjectId,athena workshop,61746865-6e61-4207-976f-726b73686f70,rev?*%
%TF.SameCoordinates,Original*%
%TF.FileFunction,Profile,NP*%
%FSLAX46Y46*%
G04 Gerber Fmt 4.6, Leading zero omitted, Abs format (unit mm)*
G04 Created by KiCad (PCBNEW 9.0.2) date 2025-06-03 16:13:35*
%MOMM*%
%LPD*%
G01*
G04 APERTURE LIST*
%TA.AperFunction,Profile*%
%ADD10C,0.050000*%
%TD*%
G04 APERTURE END LIST*
D10*
X146500000Y-32500000D02*
X145500000Y-36000000D01*
X147500000Y-46000000D01*
X146500000Y-55500000D01*
X146500000Y-82500000D01*
X144500000Y-91500000D01*
X141500000Y-104500000D01*
X137500000Y-121500000D01*
X136000000Y-132500000D01*
X135500000Y-145000000D01*
X142500000Y-155500000D01*
X145000000Y-158000000D01*
X138000000Y-164000000D01*
X132500000Y-163500000D01*
X127000000Y-157500000D01*
X117500000Y-155500000D01*
X118500000Y-159500000D01*
X122500000Y-163500000D01*
X123000000Y-167500000D01*
X114000000Y-170000000D01*
X108500000Y-169000000D01*
X107000000Y-165000000D01*
X102500000Y-167500000D01*
X95000000Y-167500000D01*
X91500000Y-162500000D01*
X89500000Y-161000000D01*
X81000000Y-166000000D01*
X67000000Y-164000000D01*
X57500000Y-155500000D01*
X56486589Y-149419537D01*
X70717081Y-144021764D01*
X77500000Y-143500000D01*
X76000000Y-117000000D01*
X81000000Y-92000000D01*
X96500000Y-75000000D01*
X108500000Y-66500000D01*
X111500000Y-65500000D01*
X105000000Y-57000000D01*
X105000000Y-45500000D01*
X100000000Y-33500000D01*
X98277779Y-20583334D01*
X117000000Y-33000000D01*
X128500000Y-31500000D01*
X134500000Y-23000000D01*
X144000000Y-15000000D01*
X146500000Y-32500000D01*
M02*
