%TF.GenerationSoftware,KiCad,Pcbnew,9.0.2*%
%TF.CreationDate,2025-06-03T16:13:35-04:00*%
%TF.ProjectId,athena workshop,61746865-6e61-4207-976f-726b73686f70,rev?*%
%TF.SameCoordinates,Original*%
%TF.FileFunction,Legend,Bot*%
%TF.FilePolarity,Positive*%
%FSLAX46Y46*%
G04 Gerber Fmt 4.6, Leading zero omitted, Abs format (unit mm)*
G04 Created by KiCad (PCBNEW 9.0.2) date 2025-06-03 16:13:35*
%MOMM*%
%LPD*%
G01*
G04 APERTURE LIST*
%ADD10C,0.100000*%
%ADD11C,0.150000*%
%ADD12C,0.120000*%
G04 APERTURE END LIST*
D10*
X131267544Y-69824800D02*
X131362782Y-69872419D01*
X131362782Y-69872419D02*
X131553258Y-69872419D01*
X131553258Y-69872419D02*
X131648496Y-69824800D01*
X131648496Y-69824800D02*
X131696115Y-69777180D01*
X131696115Y-69777180D02*
X131743734Y-69681942D01*
X131743734Y-69681942D02*
X131743734Y-69396228D01*
X131743734Y-69396228D02*
X131696115Y-69300990D01*
X131696115Y-69300990D02*
X131648496Y-69253371D01*
X131648496Y-69253371D02*
X131553258Y-69205752D01*
X131553258Y-69205752D02*
X131362782Y-69205752D01*
X131362782Y-69205752D02*
X131267544Y-69253371D01*
X130410401Y-69872419D02*
X130410401Y-69348609D01*
X130410401Y-69348609D02*
X130458020Y-69253371D01*
X130458020Y-69253371D02*
X130553258Y-69205752D01*
X130553258Y-69205752D02*
X130743734Y-69205752D01*
X130743734Y-69205752D02*
X130838972Y-69253371D01*
X130410401Y-69824800D02*
X130505639Y-69872419D01*
X130505639Y-69872419D02*
X130743734Y-69872419D01*
X130743734Y-69872419D02*
X130838972Y-69824800D01*
X130838972Y-69824800D02*
X130886591Y-69729561D01*
X130886591Y-69729561D02*
X130886591Y-69634323D01*
X130886591Y-69634323D02*
X130838972Y-69539085D01*
X130838972Y-69539085D02*
X130743734Y-69491466D01*
X130743734Y-69491466D02*
X130505639Y-69491466D01*
X130505639Y-69491466D02*
X130410401Y-69443847D01*
X130077067Y-69205752D02*
X129696115Y-69205752D01*
X129934210Y-68872419D02*
X129934210Y-69729561D01*
X129934210Y-69729561D02*
X129886591Y-69824800D01*
X129886591Y-69824800D02*
X129791353Y-69872419D01*
X129791353Y-69872419D02*
X129696115Y-69872419D01*
X129362781Y-69777180D02*
X129315162Y-69824800D01*
X129315162Y-69824800D02*
X129362781Y-69872419D01*
X129362781Y-69872419D02*
X129410400Y-69824800D01*
X129410400Y-69824800D02*
X129362781Y-69777180D01*
X129362781Y-69777180D02*
X129362781Y-69872419D01*
X129362781Y-69491466D02*
X129410400Y-68920038D01*
X129410400Y-68920038D02*
X129362781Y-68872419D01*
X129362781Y-68872419D02*
X129315162Y-68920038D01*
X129315162Y-68920038D02*
X129362781Y-69491466D01*
X129362781Y-69491466D02*
X129362781Y-68872419D01*
D11*
X113285714Y-98331009D02*
X113142857Y-98378628D01*
X113142857Y-98378628D02*
X113095238Y-98426247D01*
X113095238Y-98426247D02*
X113047619Y-98521485D01*
X113047619Y-98521485D02*
X113047619Y-98664342D01*
X113047619Y-98664342D02*
X113095238Y-98759580D01*
X113095238Y-98759580D02*
X113142857Y-98807200D01*
X113142857Y-98807200D02*
X113238095Y-98854819D01*
X113238095Y-98854819D02*
X113619047Y-98854819D01*
X113619047Y-98854819D02*
X113619047Y-97854819D01*
X113619047Y-97854819D02*
X113285714Y-97854819D01*
X113285714Y-97854819D02*
X113190476Y-97902438D01*
X113190476Y-97902438D02*
X113142857Y-97950057D01*
X113142857Y-97950057D02*
X113095238Y-98045295D01*
X113095238Y-98045295D02*
X113095238Y-98140533D01*
X113095238Y-98140533D02*
X113142857Y-98235771D01*
X113142857Y-98235771D02*
X113190476Y-98283390D01*
X113190476Y-98283390D02*
X113285714Y-98331009D01*
X113285714Y-98331009D02*
X113619047Y-98331009D01*
X112761904Y-97854819D02*
X112190476Y-97854819D01*
X112476190Y-98854819D02*
X112476190Y-97854819D01*
X111333333Y-98854819D02*
X111904761Y-98854819D01*
X111619047Y-98854819D02*
X111619047Y-97854819D01*
X111619047Y-97854819D02*
X111714285Y-97997676D01*
X111714285Y-97997676D02*
X111809523Y-98092914D01*
X111809523Y-98092914D02*
X111904761Y-98140533D01*
D12*
%TO.C,BT1*%
X101720000Y-101540000D02*
X101720000Y-104000000D01*
X101720000Y-110000000D02*
X101720000Y-110630000D01*
X101720000Y-110630000D02*
X103160000Y-114580000D01*
X103800000Y-99460000D02*
X101720000Y-101540000D01*
X103800000Y-99460000D02*
X107300000Y-99460000D01*
X117700000Y-99460000D02*
X121200000Y-99460000D01*
X121200000Y-99460000D02*
X123280000Y-101540000D01*
X123280000Y-101540000D02*
X123280000Y-104000000D01*
X123280000Y-110000000D02*
X123280000Y-110630000D01*
X123280000Y-110630000D02*
X121840000Y-114580000D01*
X106500000Y-115550000D02*
G75*
G02*
X103174757Y-114588169I-1310000J1700000D01*
G01*
X121840000Y-114580000D02*
G75*
G02*
X118503354Y-115566530I-2030000J730001D01*
G01*
%TD*%
M02*
