%TF.GenerationSoftware,KiCad,Pcbnew,9.0.2*%
%TF.CreationDate,2025-06-05T12:57:38-04:00*%
%TF.ProjectId,athena workshop,61746865-6e61-4207-976f-726b73686f70,rev?*%
%TF.SameCoordinates,Original*%
%TF.FileFunction,Copper,L2,Bot*%
%TF.FilePolarity,Positive*%
%FSLAX46Y46*%
G04 Gerber Fmt 4.6, Leading zero omitted, Abs format (unit mm)*
G04 Created by KiCad (PCBNEW 9.0.2) date 2025-06-05 12:57:38*
%MOMM*%
%LPD*%
G01*
G04 APERTURE LIST*
%TA.AperFunction,ComponentPad*%
%ADD10C,1.600000*%
%TD*%
%TA.AperFunction,ComponentPad*%
%ADD11R,1.800000X1.800000*%
%TD*%
%TA.AperFunction,ComponentPad*%
%ADD12C,1.800000*%
%TD*%
%TA.AperFunction,ComponentPad*%
%ADD13C,2.000000*%
%TD*%
%TA.AperFunction,SMDPad,CuDef*%
%ADD14R,1.270000X5.080000*%
%TD*%
%TA.AperFunction,SMDPad,CuDef*%
%ADD15C,17.800000*%
%TD*%
%TA.AperFunction,ViaPad*%
%ADD16C,0.600000*%
%TD*%
G04 APERTURE END LIST*
D10*
%TO.P,R3,2*%
%TO.N,Net-(BT1--)*%
X102500000Y-160000000D03*
%TO.P,R3,1*%
%TO.N,Net-(D4-K)*%
X94880000Y-160000000D03*
%TD*%
%TO.P,R5,2*%
%TO.N,Net-(BT1--)*%
X72620000Y-155000000D03*
%TO.P,R5,1*%
%TO.N,Net-(D3-K)*%
X65000000Y-155000000D03*
%TD*%
%TO.P,R4,1*%
%TO.N,Net-(M1--)*%
X65000000Y-150950000D03*
%TO.P,R4,2*%
%TO.N,Net-(BT1--)*%
X72620000Y-150950000D03*
%TD*%
D11*
%TO.P,D3,1,K*%
%TO.N,Net-(D3-K)*%
X90000000Y-90000000D03*
D12*
%TO.P,D3,2,A*%
%TO.N,Net-(D3-A)*%
X92540000Y-90000000D03*
%TD*%
D11*
%TO.P,D4,1,K*%
%TO.N,Net-(D4-K)*%
X80000000Y-115000000D03*
D12*
%TO.P,D4,2,A*%
%TO.N,Net-(D3-A)*%
X82540000Y-115000000D03*
%TD*%
D13*
%TO.P,SW2,1,1*%
%TO.N,Net-(D1-A)*%
X118500000Y-70000000D03*
X125000000Y-70000000D03*
%TO.P,SW2,2,2*%
%TO.N,Net-(D3-A)*%
X118500000Y-74500000D03*
X125000000Y-74500000D03*
%TD*%
%TO.P,SW1,1,1*%
%TO.N,Net-(BT1-+)*%
X123250000Y-47250000D03*
X129750000Y-47250000D03*
%TO.P,SW1,2,2*%
%TO.N,Net-(D1-A)*%
X123250000Y-51750000D03*
X129750000Y-51750000D03*
%TD*%
D11*
%TO.P,D2,1,K*%
%TO.N,Net-(D2-K)*%
X134725000Y-40500000D03*
D12*
%TO.P,D2,2,A*%
%TO.N,Net-(D1-A)*%
X137265000Y-40500000D03*
%TD*%
D10*
%TO.P,R2,1*%
%TO.N,Net-(D2-K)*%
X119000000Y-59000000D03*
%TO.P,R2,2*%
%TO.N,Net-(BT1--)*%
X126620000Y-59000000D03*
%TD*%
D11*
%TO.P,D1,1,K*%
%TO.N,Net-(D1-K)*%
X114225000Y-42500000D03*
D12*
%TO.P,D1,2,A*%
%TO.N,Net-(D1-A)*%
X116765000Y-42500000D03*
%TD*%
D10*
%TO.P,R1,1*%
%TO.N,Net-(D1-K)*%
X129000000Y-59000000D03*
%TO.P,R1,2*%
%TO.N,Net-(BT1--)*%
X136620000Y-59000000D03*
%TD*%
D14*
%TO.P,BT1,1,+*%
%TO.N,Net-(BT1-+)*%
X115985000Y-105000000D03*
X94015000Y-105000000D03*
D15*
%TO.P,BT1,2,-*%
%TO.N,Net-(BT1--)*%
X105000000Y-105000000D03*
%TD*%
D16*
%TO.N,*%
X92500000Y-159050000D03*
X92500000Y-159050000D03*
X119580000Y-165750000D03*
%TO.N,Net-(D3-A)*%
X118500000Y-74500000D03*
X118500000Y-74500000D03*
X118500000Y-74500000D03*
X118500000Y-74500000D03*
%TO.N,*%
X123110000Y-73910000D03*
X145000000Y-100950000D03*
X145000000Y-100950000D03*
X118590000Y-108435000D03*
X83040000Y-113030000D03*
X123980000Y-119525000D03*
X123980000Y-114525000D03*
X115000000Y-90000000D03*
%TD*%
M02*
