%TF.GenerationSoftware,KiCad,Pcbnew,9.0.2*%
%TF.CreationDate,2025-06-05T12:57:38-04:00*%
%TF.ProjectId,athena workshop,61746865-6e61-4207-976f-726b73686f70,rev?*%
%TF.SameCoordinates,Original*%
%TF.FileFunction,Legend,Top*%
%TF.FilePolarity,Positive*%
%FSLAX46Y46*%
G04 Gerber Fmt 4.6, Leading zero omitted, Abs format (unit mm)*
G04 Created by KiCad (PCBNEW 9.0.2) date 2025-06-05 12:57:38*
%MOMM*%
%LPD*%
G01*
G04 APERTURE LIST*
%ADD10C,0.000000*%
%ADD11C,0.100000*%
%ADD12C,0.400000*%
%ADD13C,0.150000*%
%ADD14C,0.120000*%
G04 APERTURE END LIST*
D10*
G36*
X85000000Y-125000000D02*
G01*
X85013933Y-125000888D01*
X85028296Y-125002409D01*
X85042312Y-125004719D01*
X85055224Y-125007924D01*
X85067063Y-125011984D01*
X85077862Y-125016858D01*
X85087652Y-125022504D01*
X85096465Y-125028883D01*
X85104333Y-125035954D01*
X85111287Y-125043675D01*
X85117361Y-125052007D01*
X85122584Y-125060908D01*
X85126989Y-125070338D01*
X85130608Y-125080256D01*
X85133473Y-125090622D01*
X85135616Y-125101395D01*
X85137067Y-125112533D01*
X85137860Y-125123998D01*
X85138025Y-125135746D01*
X85137595Y-125147739D01*
X85136601Y-125159935D01*
X85135076Y-125172294D01*
X85133051Y-125184775D01*
X85130557Y-125197337D01*
X85124293Y-125222542D01*
X85116537Y-125247584D01*
X85107545Y-125272136D01*
X85097570Y-125295875D01*
X85086867Y-125318474D01*
X84805801Y-125912047D01*
X84519484Y-126543936D01*
X84164484Y-127359835D01*
X83762179Y-128330201D01*
X83549968Y-128864076D01*
X83333949Y-129425490D01*
X83116794Y-130010749D01*
X82901174Y-130616159D01*
X82689763Y-131238029D01*
X82485232Y-131872665D01*
X82298203Y-132514298D01*
X82136309Y-133156020D01*
X81997746Y-133792437D01*
X81880712Y-134418157D01*
X81783403Y-135027787D01*
X81704016Y-135615934D01*
X81591795Y-136706208D01*
X81529624Y-137645835D01*
X81503076Y-138391674D01*
X81499149Y-139129413D01*
X80324537Y-139129413D01*
X80331110Y-138857236D01*
X80368419Y-138332359D01*
X80444836Y-137590430D01*
X80568733Y-136667096D01*
X80651104Y-136148542D01*
X80748484Y-135598005D01*
X80861921Y-135019941D01*
X80992460Y-134418805D01*
X81141149Y-133799053D01*
X81309035Y-133165142D01*
X81497162Y-132521528D01*
X81706580Y-131872665D01*
X82170208Y-130590298D01*
X82662462Y-129365325D01*
X83157867Y-128230899D01*
X83630948Y-127220174D01*
X84056228Y-126366303D01*
X84408233Y-125702440D01*
X84661486Y-125261736D01*
X84790513Y-125077346D01*
X84794352Y-125073317D01*
X84799131Y-125068740D01*
X84805799Y-125062863D01*
X84814342Y-125055992D01*
X84824747Y-125048434D01*
X84830644Y-125044493D01*
X84837001Y-125040495D01*
X84843817Y-125036478D01*
X84851091Y-125032480D01*
X84858820Y-125028541D01*
X84867002Y-125024697D01*
X84875638Y-125020988D01*
X84884723Y-125017451D01*
X84894258Y-125014125D01*
X84904240Y-125011049D01*
X84914668Y-125008260D01*
X84925539Y-125005796D01*
X84936853Y-125003697D01*
X84948608Y-125002000D01*
X84960801Y-125000743D01*
X84973432Y-124999965D01*
X84986499Y-124999705D01*
X85000000Y-125000000D01*
G37*
G36*
X89295301Y-124531700D02*
G01*
X90201282Y-124588918D01*
X91197462Y-124711186D01*
X91729939Y-124799728D01*
X92285640Y-124908148D01*
X92864790Y-125037653D01*
X93467614Y-125189449D01*
X94094336Y-125364739D01*
X94745181Y-125564731D01*
X95420374Y-125790629D01*
X96120140Y-126043638D01*
X96844704Y-126324966D01*
X97594289Y-126635816D01*
X98369122Y-126977395D01*
X99169426Y-127350908D01*
X100047189Y-127743680D01*
X100923979Y-128081916D01*
X101798363Y-128368170D01*
X102668908Y-128604996D01*
X103534182Y-128794948D01*
X104392753Y-128940579D01*
X105243188Y-129044442D01*
X106084055Y-129109093D01*
X106913921Y-129137083D01*
X107731354Y-129130968D01*
X108534922Y-129093300D01*
X109323191Y-129026634D01*
X110094730Y-128933522D01*
X110848106Y-128816520D01*
X111581887Y-128678180D01*
X112294640Y-128521056D01*
X113651333Y-128160672D01*
X114906726Y-127755796D01*
X116049358Y-127326860D01*
X117067771Y-126894291D01*
X117950505Y-126478520D01*
X118686100Y-126099977D01*
X119670036Y-125536290D01*
X119675418Y-125533386D01*
X119680992Y-125531183D01*
X119686729Y-125529650D01*
X119692599Y-125528761D01*
X119698572Y-125528487D01*
X119704619Y-125528799D01*
X119710710Y-125529668D01*
X119716814Y-125531068D01*
X119722904Y-125532969D01*
X119728948Y-125535342D01*
X119734917Y-125538160D01*
X119740782Y-125541395D01*
X119746512Y-125545017D01*
X119752078Y-125548998D01*
X119757450Y-125553310D01*
X119762599Y-125557925D01*
X119767495Y-125562815D01*
X119772107Y-125567950D01*
X119776407Y-125573302D01*
X119780365Y-125578844D01*
X119783950Y-125584547D01*
X119787134Y-125590382D01*
X119789886Y-125596321D01*
X119792177Y-125602336D01*
X119793977Y-125608398D01*
X119795257Y-125614478D01*
X119795986Y-125620550D01*
X119796135Y-125626583D01*
X119795674Y-125632551D01*
X119794574Y-125638423D01*
X119792805Y-125644173D01*
X119790336Y-125649772D01*
X118085171Y-128968948D01*
X118082834Y-128973878D01*
X118080863Y-128978853D01*
X118079250Y-128983861D01*
X118077988Y-128988887D01*
X118077068Y-128993919D01*
X118076484Y-128998944D01*
X118076227Y-129003949D01*
X118076291Y-129008920D01*
X118076666Y-129013846D01*
X118077346Y-129018712D01*
X118078323Y-129023505D01*
X118079589Y-129028213D01*
X118081137Y-129032822D01*
X118082959Y-129037320D01*
X118085046Y-129041693D01*
X118087393Y-129045928D01*
X118089990Y-129050012D01*
X118092831Y-129053932D01*
X118095907Y-129057676D01*
X118099211Y-129061229D01*
X118102736Y-129064579D01*
X118106473Y-129067713D01*
X118110414Y-129070618D01*
X118114554Y-129073281D01*
X118118882Y-129075688D01*
X118123393Y-129077827D01*
X118128078Y-129079684D01*
X118132929Y-129081246D01*
X118137939Y-129082501D01*
X118143101Y-129083436D01*
X118148406Y-129084036D01*
X118153847Y-129084290D01*
X119531473Y-129095685D01*
X120625573Y-129095639D01*
X121875170Y-129085220D01*
X121881812Y-129085370D01*
X121888261Y-129085982D01*
X121894505Y-129087037D01*
X121900534Y-129088514D01*
X121906336Y-129090390D01*
X121911900Y-129092645D01*
X121917214Y-129095259D01*
X121922267Y-129098209D01*
X121927047Y-129101475D01*
X121931544Y-129105036D01*
X121935745Y-129108870D01*
X121939640Y-129112957D01*
X121943216Y-129117276D01*
X121946464Y-129121805D01*
X121949370Y-129126524D01*
X121951925Y-129131410D01*
X121954116Y-129136444D01*
X121955932Y-129141604D01*
X121957362Y-129146870D01*
X121958395Y-129152219D01*
X121959018Y-129157631D01*
X121959221Y-129163085D01*
X121958993Y-129168560D01*
X121958321Y-129174034D01*
X121957195Y-129179487D01*
X121955603Y-129184898D01*
X121953534Y-129190245D01*
X121950976Y-129195507D01*
X121947918Y-129200664D01*
X121944349Y-129205694D01*
X121940258Y-129210576D01*
X121935632Y-129215290D01*
X121186460Y-129900762D01*
X119880069Y-131025151D01*
X118119683Y-132425004D01*
X117101499Y-133177150D01*
X116008524Y-133936867D01*
X114853663Y-134683724D01*
X113649817Y-135397290D01*
X112409889Y-136057131D01*
X111146783Y-136642818D01*
X109873401Y-137133918D01*
X109236889Y-137337614D01*
X108602646Y-137510000D01*
X107972286Y-137648525D01*
X107347422Y-137750633D01*
X106729665Y-137813770D01*
X106120629Y-137835384D01*
X104853684Y-137816850D01*
X103655762Y-137763222D01*
X102521199Y-137677456D01*
X101444331Y-137562511D01*
X100419491Y-137421345D01*
X99441016Y-137256916D01*
X98503240Y-137072182D01*
X97600498Y-136870101D01*
X96727126Y-136653631D01*
X95877458Y-136425730D01*
X94226576Y-135947469D01*
X92602531Y-135458981D01*
X90960006Y-134983931D01*
X90345592Y-134818156D01*
X98103902Y-134818156D01*
X98107744Y-134866088D01*
X98116648Y-134910713D01*
X98130431Y-134951790D01*
X98148907Y-134989082D01*
X98171890Y-135022348D01*
X98199195Y-135051350D01*
X98230637Y-135075848D01*
X98266031Y-135095603D01*
X98305191Y-135110376D01*
X98347933Y-135119927D01*
X98394070Y-135124017D01*
X98443419Y-135122407D01*
X98495793Y-135114858D01*
X98551007Y-135101131D01*
X98608877Y-135080985D01*
X98669217Y-135054182D01*
X98731841Y-135020483D01*
X98796565Y-134979649D01*
X98863203Y-134931439D01*
X98931570Y-134875616D01*
X99001481Y-134811939D01*
X99072750Y-134740169D01*
X99145193Y-134660068D01*
X99218624Y-134571396D01*
X99292858Y-134473913D01*
X99367709Y-134367380D01*
X99404272Y-134311831D01*
X99440955Y-134248012D01*
X99477417Y-134177560D01*
X99513315Y-134102109D01*
X99548307Y-134023296D01*
X99582051Y-133942755D01*
X99644427Y-133783035D01*
X99697706Y-133636032D01*
X99739150Y-133514830D01*
X99775590Y-133402168D01*
X100124097Y-133362945D01*
X100285090Y-134104677D01*
X100410556Y-134735703D01*
X100462431Y-135029883D01*
X100498648Y-135276937D01*
X100508271Y-135328135D01*
X100522861Y-135377721D01*
X100542076Y-135425481D01*
X100565572Y-135471203D01*
X100593006Y-135514673D01*
X100624036Y-135555678D01*
X100658319Y-135594006D01*
X100695511Y-135629442D01*
X100735269Y-135661775D01*
X100777251Y-135690792D01*
X100821114Y-135716278D01*
X100866513Y-135738022D01*
X100913108Y-135755809D01*
X100960553Y-135769428D01*
X101008507Y-135778665D01*
X101056626Y-135783306D01*
X101104568Y-135783140D01*
X101151989Y-135777952D01*
X101198546Y-135767531D01*
X101243897Y-135751662D01*
X101287698Y-135730133D01*
X101329606Y-135702731D01*
X101369278Y-135669242D01*
X101406372Y-135629454D01*
X101440544Y-135583154D01*
X101471451Y-135530128D01*
X101498750Y-135470164D01*
X101522098Y-135403048D01*
X101541153Y-135328568D01*
X101555571Y-135246510D01*
X101565009Y-135156662D01*
X101569124Y-135058810D01*
X101551515Y-134912902D01*
X101524788Y-134754639D01*
X101488711Y-134583961D01*
X101443054Y-134400811D01*
X101387585Y-134205130D01*
X101322075Y-133996859D01*
X101246291Y-133775940D01*
X101160002Y-133542313D01*
X101136469Y-133478517D01*
X104295165Y-133478517D01*
X104297020Y-133668351D01*
X104303540Y-133811157D01*
X104313482Y-133950040D01*
X104326822Y-134084926D01*
X104343535Y-134215739D01*
X104363596Y-134342406D01*
X104386981Y-134464853D01*
X104413664Y-134583003D01*
X104443621Y-134696784D01*
X104476827Y-134806120D01*
X104513256Y-134910937D01*
X104552884Y-135011161D01*
X104595687Y-135106717D01*
X104641639Y-135197530D01*
X104690715Y-135283526D01*
X104742891Y-135364630D01*
X104798141Y-135440768D01*
X104856441Y-135511866D01*
X104917766Y-135577848D01*
X104982092Y-135638641D01*
X105049392Y-135694170D01*
X105119643Y-135744360D01*
X105192819Y-135789137D01*
X105268896Y-135828426D01*
X105347849Y-135862153D01*
X105429652Y-135890243D01*
X105514282Y-135912622D01*
X105601712Y-135929216D01*
X105691919Y-135939949D01*
X105784877Y-135944747D01*
X105880562Y-135943536D01*
X105978949Y-135936241D01*
X106080012Y-135922788D01*
X106178498Y-135904474D01*
X106269354Y-135882828D01*
X106352855Y-135858103D01*
X106429276Y-135830550D01*
X106498894Y-135800420D01*
X106561983Y-135767965D01*
X106618821Y-135733435D01*
X106669683Y-135697084D01*
X106714844Y-135659162D01*
X106754580Y-135619920D01*
X106789167Y-135579611D01*
X106818881Y-135538485D01*
X106843997Y-135496794D01*
X106864791Y-135454791D01*
X106881539Y-135412725D01*
X106894516Y-135370849D01*
X106903999Y-135329414D01*
X106910263Y-135288671D01*
X106913584Y-135248873D01*
X106914237Y-135210271D01*
X106912499Y-135173115D01*
X106908645Y-135137658D01*
X106902950Y-135104151D01*
X106895691Y-135072846D01*
X106887143Y-135043994D01*
X106877582Y-135017846D01*
X106867284Y-134994655D01*
X106856525Y-134974671D01*
X106845580Y-134958146D01*
X106834724Y-134945332D01*
X106824235Y-134936479D01*
X106814386Y-134931840D01*
X106799883Y-134927168D01*
X106786079Y-134921303D01*
X106757706Y-134907947D01*
X106741709Y-134901429D01*
X106723551Y-134895669D01*
X106702518Y-134891152D01*
X106677895Y-134888367D01*
X106648967Y-134887800D01*
X106615019Y-134889939D01*
X106575337Y-134895271D01*
X106529205Y-134904283D01*
X106475910Y-134917462D01*
X106414736Y-134935295D01*
X106344968Y-134958271D01*
X106265892Y-134986875D01*
X106224215Y-135001585D01*
X106183178Y-135014133D01*
X106142769Y-135024497D01*
X106102979Y-135032654D01*
X106063796Y-135038582D01*
X106025212Y-135042257D01*
X105987216Y-135043658D01*
X105949797Y-135042762D01*
X105912945Y-135039545D01*
X105876650Y-135033987D01*
X105840902Y-135026063D01*
X105805691Y-135015751D01*
X105771006Y-135003029D01*
X105736837Y-134987874D01*
X105703173Y-134970263D01*
X105670005Y-134950174D01*
X105637323Y-134927585D01*
X105605116Y-134902472D01*
X105573373Y-134874813D01*
X105542085Y-134844585D01*
X105511241Y-134811767D01*
X105480832Y-134776334D01*
X105450846Y-134738265D01*
X105421274Y-134697537D01*
X105392106Y-134654128D01*
X105363330Y-134608014D01*
X105306917Y-134507583D01*
X105251954Y-134396064D01*
X105198359Y-134273275D01*
X105164472Y-134181412D01*
X105133103Y-134080528D01*
X105104769Y-133971845D01*
X105079987Y-133856587D01*
X105059273Y-133735976D01*
X105043144Y-133611234D01*
X105032116Y-133483585D01*
X105026706Y-133354250D01*
X105027431Y-133224454D01*
X105034807Y-133095417D01*
X105049350Y-132968364D01*
X105071577Y-132844517D01*
X105102005Y-132725098D01*
X105141151Y-132611330D01*
X105164154Y-132556947D01*
X105189530Y-132504436D01*
X105217344Y-132453948D01*
X105247660Y-132405638D01*
X105257080Y-132391988D01*
X105266462Y-132378954D01*
X105275799Y-132366516D01*
X105285084Y-132354657D01*
X105294310Y-132343360D01*
X105303470Y-132332605D01*
X105321559Y-132312655D01*
X105339293Y-132294663D01*
X105356614Y-132278486D01*
X105373462Y-132263981D01*
X105389779Y-132251005D01*
X105405507Y-132239413D01*
X105420586Y-132229064D01*
X105434958Y-132219814D01*
X105448565Y-132211519D01*
X105494157Y-132185031D01*
X105513038Y-132174218D01*
X105531915Y-132164762D01*
X105550758Y-132156602D01*
X105569533Y-132149678D01*
X105588209Y-132143930D01*
X105606753Y-132139297D01*
X105625133Y-132135719D01*
X105643317Y-132133135D01*
X105661272Y-132131485D01*
X105678967Y-132130708D01*
X105696368Y-132130745D01*
X105713445Y-132131534D01*
X105730164Y-132133016D01*
X105746494Y-132135129D01*
X105762402Y-132137814D01*
X105777855Y-132141009D01*
X105792823Y-132144655D01*
X105807272Y-132148691D01*
X105834486Y-132157692D01*
X105859239Y-132167528D01*
X105881274Y-132177716D01*
X105900333Y-132187772D01*
X105916158Y-132197213D01*
X105928492Y-132205555D01*
X105937075Y-132212316D01*
X105988629Y-132248095D01*
X106037551Y-132278998D01*
X106083867Y-132305190D01*
X106127603Y-132326840D01*
X106168784Y-132344113D01*
X106207437Y-132357177D01*
X106243588Y-132366198D01*
X106277262Y-132371344D01*
X106308486Y-132372781D01*
X106337285Y-132370676D01*
X106363685Y-132365196D01*
X106387713Y-132356508D01*
X106409394Y-132344778D01*
X106428753Y-132330174D01*
X106445818Y-132312863D01*
X106460614Y-132293010D01*
X106473167Y-132270784D01*
X106483503Y-132246351D01*
X106491647Y-132219877D01*
X106497626Y-132191530D01*
X106501465Y-132161477D01*
X106503191Y-132129884D01*
X106502830Y-132096919D01*
X106500407Y-132062747D01*
X106495948Y-132027537D01*
X106489479Y-131991454D01*
X106481026Y-131954666D01*
X106470616Y-131917340D01*
X106458273Y-131879642D01*
X106444025Y-131841739D01*
X106427896Y-131803798D01*
X106409913Y-131765987D01*
X106367464Y-131708367D01*
X106324058Y-131654107D01*
X106285214Y-131609564D01*
X107311254Y-131609564D01*
X107314392Y-131723877D01*
X107321486Y-131846377D01*
X107345778Y-132112108D01*
X107380599Y-132399099D01*
X107422419Y-132699693D01*
X107512932Y-133311054D01*
X107554562Y-133606506D01*
X107589067Y-133884928D01*
X107670850Y-134657322D01*
X107686881Y-134794076D01*
X107704618Y-134925782D01*
X107725799Y-135061186D01*
X107752159Y-135209034D01*
X107765398Y-135245254D01*
X107789850Y-135275639D01*
X107824761Y-135300490D01*
X107869379Y-135320109D01*
X107922950Y-135334797D01*
X107984722Y-135344855D01*
X108053942Y-135350584D01*
X108129856Y-135352286D01*
X108298754Y-135344814D01*
X108485395Y-135324850D01*
X108683752Y-135294803D01*
X108887803Y-135257084D01*
X109288887Y-135168274D01*
X109640452Y-135077705D01*
X109894305Y-135004661D01*
X110002253Y-134968427D01*
X110013866Y-134962723D01*
X110029465Y-134956803D01*
X110070578Y-134942907D01*
X110095071Y-134934224D01*
X110121508Y-134923915D01*
X110149379Y-134911627D01*
X110178173Y-134897006D01*
X110207380Y-134879699D01*
X110221979Y-134869929D01*
X110236490Y-134859355D01*
X110250849Y-134847933D01*
X110264992Y-134835619D01*
X110278856Y-134822369D01*
X110292376Y-134808139D01*
X110305489Y-134792884D01*
X110318132Y-134776561D01*
X110330239Y-134759126D01*
X110341749Y-134740534D01*
X110352596Y-134720742D01*
X110362717Y-134699704D01*
X110372048Y-134677378D01*
X110380526Y-134653718D01*
X110388787Y-134630279D01*
X110393830Y-134607684D01*
X110395798Y-134585943D01*
X110394836Y-134565065D01*
X110391088Y-134545062D01*
X110384698Y-134525943D01*
X110375810Y-134507718D01*
X110364570Y-134490398D01*
X110351121Y-134473993D01*
X110335607Y-134458512D01*
X110318174Y-134443966D01*
X110298964Y-134430366D01*
X110278123Y-134417721D01*
X110255795Y-134406042D01*
X110207255Y-134385620D01*
X110154499Y-134369182D01*
X110098681Y-134356809D01*
X110040955Y-134348583D01*
X109982477Y-134344585D01*
X109924400Y-134344896D01*
X109867880Y-134349597D01*
X109814072Y-134358769D01*
X109764128Y-134372494D01*
X109639701Y-134409505D01*
X109468669Y-134452601D01*
X109268568Y-134496048D01*
X109163096Y-134516112D01*
X109056932Y-134534114D01*
X108952269Y-134549337D01*
X108851298Y-134561066D01*
X108756212Y-134568583D01*
X108669201Y-134571171D01*
X108592459Y-134568115D01*
X108558623Y-134564247D01*
X108528177Y-134558698D01*
X108501393Y-134551380D01*
X108478546Y-134542202D01*
X108459911Y-134531076D01*
X108445760Y-134517912D01*
X108424258Y-134472632D01*
X108406510Y-134395865D01*
X108391751Y-134290946D01*
X108379217Y-134161210D01*
X108336016Y-133460772D01*
X108307865Y-133048338D01*
X108267187Y-132629992D01*
X108240237Y-132426937D01*
X108207860Y-132232407D01*
X108169290Y-132049736D01*
X108123762Y-131882259D01*
X108114164Y-131825799D01*
X108104080Y-131771578D01*
X108093528Y-131719563D01*
X108082528Y-131669725D01*
X108071097Y-131622032D01*
X108059256Y-131576455D01*
X108047023Y-131532962D01*
X108034418Y-131491522D01*
X108021458Y-131452106D01*
X108008163Y-131414682D01*
X107994552Y-131379219D01*
X107980643Y-131345688D01*
X107966457Y-131314057D01*
X107952011Y-131284296D01*
X107937325Y-131256373D01*
X107922417Y-131230259D01*
X107907307Y-131205922D01*
X107892013Y-131183332D01*
X107876554Y-131162459D01*
X107860950Y-131143271D01*
X107845218Y-131125738D01*
X107829379Y-131109829D01*
X107813451Y-131095513D01*
X107797453Y-131082760D01*
X107781403Y-131071540D01*
X107765322Y-131061821D01*
X107749227Y-131053572D01*
X107733138Y-131046764D01*
X107717073Y-131041365D01*
X107701052Y-131037345D01*
X107685094Y-131034673D01*
X107669216Y-131033318D01*
X107669216Y-131033320D01*
X107651345Y-131033338D01*
X107633629Y-131034964D01*
X107616097Y-131038153D01*
X107598776Y-131042860D01*
X107581694Y-131049040D01*
X107564877Y-131056649D01*
X107548355Y-131065642D01*
X107532154Y-131075974D01*
X107516302Y-131087602D01*
X107500826Y-131100479D01*
X107471112Y-131129804D01*
X107443235Y-131163593D01*
X107417412Y-131201489D01*
X107393866Y-131243132D01*
X107372815Y-131288167D01*
X107354481Y-131336235D01*
X107339082Y-131386979D01*
X107326840Y-131440042D01*
X107317975Y-131495065D01*
X107312706Y-131551692D01*
X107311254Y-131609564D01*
X106285214Y-131609564D01*
X106279707Y-131603249D01*
X106234423Y-131555837D01*
X106188217Y-131511913D01*
X106141102Y-131471520D01*
X106093089Y-131434702D01*
X106044190Y-131401501D01*
X105994417Y-131371961D01*
X105943782Y-131346125D01*
X105892296Y-131324035D01*
X105839971Y-131305734D01*
X105786819Y-131291266D01*
X105732853Y-131280674D01*
X105678082Y-131274000D01*
X105622521Y-131271289D01*
X105578767Y-131271947D01*
X105534549Y-131275049D01*
X105489870Y-131280615D01*
X105444738Y-131288666D01*
X105399156Y-131299221D01*
X105353132Y-131312300D01*
X105306669Y-131327923D01*
X105259774Y-131346110D01*
X105212452Y-131366881D01*
X105164708Y-131390256D01*
X105116549Y-131416255D01*
X105067978Y-131444898D01*
X105019003Y-131476205D01*
X104969627Y-131510195D01*
X104919857Y-131546890D01*
X104869699Y-131586308D01*
X104802447Y-131658338D01*
X104738565Y-131737900D01*
X104678229Y-131825039D01*
X104621616Y-131919803D01*
X104568903Y-132022236D01*
X104520266Y-132132384D01*
X104475883Y-132250295D01*
X104435931Y-132376013D01*
X104400585Y-132509585D01*
X104370024Y-132651056D01*
X104344423Y-132800473D01*
X104323960Y-132957882D01*
X104308811Y-133123328D01*
X104299154Y-133296858D01*
X104295165Y-133478517D01*
X101136469Y-133478517D01*
X101132636Y-133468127D01*
X101101329Y-133390803D01*
X101060851Y-133300353D01*
X101037778Y-133253416D01*
X101013137Y-133207049D01*
X100987170Y-133162537D01*
X100960119Y-133121163D01*
X100932227Y-133084212D01*
X100918040Y-133067796D01*
X100903733Y-133052967D01*
X100889337Y-133039886D01*
X100874881Y-133028713D01*
X100860396Y-133019608D01*
X100845913Y-133012733D01*
X101018626Y-132836006D01*
X101197859Y-132645948D01*
X101406424Y-132415514D01*
X101619882Y-132165272D01*
X101720809Y-132039149D01*
X101813793Y-131915786D01*
X101895782Y-131797754D01*
X101963719Y-131687624D01*
X102014549Y-131587967D01*
X102032595Y-131542868D01*
X102045219Y-131501352D01*
X102062009Y-131420164D01*
X102071053Y-131343446D01*
X102071841Y-131272510D01*
X102068980Y-131239620D01*
X102063864Y-131208667D01*
X102056429Y-131179815D01*
X102046612Y-131153228D01*
X102034348Y-131129071D01*
X102019574Y-131107506D01*
X102002227Y-131088697D01*
X101982243Y-131072810D01*
X101959557Y-131060007D01*
X101934107Y-131050453D01*
X101905829Y-131044311D01*
X101874658Y-131041745D01*
X101840531Y-131042920D01*
X101803385Y-131047999D01*
X101763156Y-131057146D01*
X101719780Y-131070524D01*
X101673193Y-131088299D01*
X101623332Y-131110634D01*
X101570132Y-131137693D01*
X101513531Y-131169639D01*
X101453465Y-131206637D01*
X101389869Y-131248850D01*
X101322681Y-131296443D01*
X101251836Y-131349579D01*
X101177270Y-131408422D01*
X101098921Y-131473137D01*
X101020862Y-131539419D01*
X100947117Y-131602873D01*
X100877564Y-131663544D01*
X100812085Y-131721482D01*
X100750557Y-131776733D01*
X100692861Y-131829345D01*
X100638877Y-131879366D01*
X100588484Y-131926843D01*
X100541561Y-131971823D01*
X100497989Y-132014355D01*
X100457647Y-132054485D01*
X100420415Y-132092261D01*
X100386173Y-132127732D01*
X100354799Y-132160943D01*
X100326174Y-132191944D01*
X100300177Y-132220781D01*
X100255588Y-132272155D01*
X100220067Y-132315444D01*
X100192653Y-132351030D01*
X100172382Y-132379294D01*
X100158291Y-132400614D01*
X100149419Y-132415372D01*
X100143476Y-132426722D01*
X100174966Y-132273676D01*
X100206813Y-132102256D01*
X100242718Y-131885249D01*
X100277670Y-131635912D01*
X100306660Y-131367505D01*
X100317354Y-131230293D01*
X100324680Y-131093284D01*
X100326788Y-131007723D01*
X109851475Y-131007723D01*
X109851729Y-131045878D01*
X109854665Y-131085098D01*
X109875864Y-131243745D01*
X109906407Y-131409586D01*
X109948511Y-131594114D01*
X110004391Y-131808818D01*
X110166341Y-132374724D01*
X110409980Y-133199233D01*
X110449812Y-133312453D01*
X110493669Y-133417659D01*
X110541231Y-133515136D01*
X110592177Y-133605167D01*
X110646188Y-133688036D01*
X110702943Y-133764027D01*
X110762122Y-133833425D01*
X110823406Y-133896512D01*
X110886474Y-133953574D01*
X110951006Y-134004893D01*
X111016683Y-134050754D01*
X111083183Y-134091440D01*
X111150187Y-134127236D01*
X111217375Y-134158426D01*
X111284426Y-134185292D01*
X111351021Y-134208120D01*
X111416840Y-134227193D01*
X111481562Y-134242795D01*
X111606437Y-134264722D01*
X111723084Y-134276171D01*
X111828943Y-134279415D01*
X111921453Y-134276725D01*
X111998055Y-134270371D01*
X112093287Y-134255758D01*
X112141623Y-134242823D01*
X112187562Y-134227699D01*
X112231179Y-134210477D01*
X112272552Y-134191247D01*
X112311757Y-134170101D01*
X112348870Y-134147128D01*
X112383968Y-134122421D01*
X112417127Y-134096070D01*
X112448423Y-134068166D01*
X112477933Y-134038800D01*
X112505733Y-134008063D01*
X112531900Y-133976046D01*
X112579638Y-133908533D01*
X112621759Y-133836991D01*
X112658874Y-133762145D01*
X112691593Y-133684723D01*
X112720529Y-133605453D01*
X112746291Y-133525062D01*
X112790741Y-133363825D01*
X112829831Y-133206830D01*
X112846135Y-133117726D01*
X112855450Y-133012237D01*
X112858255Y-132892172D01*
X112855030Y-132759341D01*
X112846253Y-132615553D01*
X112832404Y-132462617D01*
X112791407Y-132136539D01*
X112735874Y-131795585D01*
X112669638Y-131454229D01*
X112596533Y-131126947D01*
X112520394Y-130828215D01*
X112493614Y-130759556D01*
X112464950Y-130694787D01*
X112434593Y-130633985D01*
X112402733Y-130577226D01*
X112369560Y-130524588D01*
X112352540Y-130499837D01*
X112335262Y-130476146D01*
X112317751Y-130453523D01*
X112300030Y-130431978D01*
X112282124Y-130411520D01*
X112264054Y-130392160D01*
X112245846Y-130373906D01*
X112227523Y-130356769D01*
X112209109Y-130340757D01*
X112190627Y-130325881D01*
X112172102Y-130312149D01*
X112153556Y-130299573D01*
X112135014Y-130288160D01*
X112116500Y-130277921D01*
X112098036Y-130268866D01*
X112079647Y-130261003D01*
X112061356Y-130254343D01*
X112043188Y-130248895D01*
X112025166Y-130244668D01*
X112007313Y-130241673D01*
X111989653Y-130239918D01*
X111972211Y-130239414D01*
X111945565Y-130241137D01*
X111919592Y-130245945D01*
X111894380Y-130253874D01*
X111870019Y-130264959D01*
X111846597Y-130279237D01*
X111824203Y-130296742D01*
X111802927Y-130317512D01*
X111782858Y-130341580D01*
X111764083Y-130368985D01*
X111746694Y-130399761D01*
X111730777Y-130433943D01*
X111716424Y-130471569D01*
X111703721Y-130512674D01*
X111692759Y-130557293D01*
X111683627Y-130605462D01*
X111676413Y-130657218D01*
X111676676Y-130694417D01*
X111679224Y-130733308D01*
X111683883Y-130773905D01*
X111690481Y-130816224D01*
X111708803Y-130906088D01*
X111732805Y-131003019D01*
X111792318Y-131218568D01*
X111825062Y-131337426D01*
X111857953Y-131463835D01*
X111904108Y-131742666D01*
X111947952Y-132029798D01*
X111985248Y-132316788D01*
X112000116Y-132457591D01*
X112011759Y-132595193D01*
X112019647Y-132728537D01*
X112023250Y-132856569D01*
X112022039Y-132978234D01*
X112015484Y-133092475D01*
X112003055Y-133198237D01*
X111984224Y-133294466D01*
X111958461Y-133380106D01*
X111942814Y-133418625D01*
X111925235Y-133454101D01*
X111908971Y-133475693D01*
X111891673Y-133495621D01*
X111873407Y-133513898D01*
X111854242Y-133530538D01*
X111834246Y-133545554D01*
X111813488Y-133558959D01*
X111792034Y-133570767D01*
X111769952Y-133580990D01*
X111747312Y-133589642D01*
X111724180Y-133596736D01*
X111700625Y-133602286D01*
X111676715Y-133606305D01*
X111652517Y-133608806D01*
X111628100Y-133609802D01*
X111603531Y-133609307D01*
X111578879Y-133607333D01*
X111554211Y-133603895D01*
X111529596Y-133599006D01*
X111505101Y-133592678D01*
X111480794Y-133584925D01*
X111456743Y-133575761D01*
X111433017Y-133565198D01*
X111409683Y-133553250D01*
X111386809Y-133539930D01*
X111364463Y-133525252D01*
X111342713Y-133509228D01*
X111321627Y-133491872D01*
X111301273Y-133473198D01*
X111281719Y-133453218D01*
X111263032Y-133431946D01*
X111245282Y-133409395D01*
X111228535Y-133385578D01*
X111170413Y-133254937D01*
X111114337Y-133106519D01*
X111060220Y-132943351D01*
X111007973Y-132768461D01*
X110908742Y-132395624D01*
X110815945Y-132012224D01*
X110728881Y-131642480D01*
X110646850Y-131310609D01*
X110607504Y-131166445D01*
X110569153Y-131040830D01*
X110531711Y-130936793D01*
X110495090Y-130857360D01*
X110470733Y-130816787D01*
X110445456Y-130780296D01*
X110419379Y-130747787D01*
X110392621Y-130719159D01*
X110365304Y-130694311D01*
X110337547Y-130673144D01*
X110309470Y-130655557D01*
X110281193Y-130641448D01*
X110252836Y-130630718D01*
X110224519Y-130623266D01*
X110196363Y-130618991D01*
X110168487Y-130617793D01*
X110141011Y-130619571D01*
X110114055Y-130624225D01*
X110087740Y-130631654D01*
X110062185Y-130641757D01*
X110037511Y-130654435D01*
X110013837Y-130669586D01*
X109991283Y-130687110D01*
X109969970Y-130706906D01*
X109950018Y-130728874D01*
X109931546Y-130752913D01*
X109914675Y-130778923D01*
X109899524Y-130806803D01*
X109886214Y-130836452D01*
X109874864Y-130867770D01*
X109865596Y-130900657D01*
X109858528Y-130935012D01*
X109853781Y-130970734D01*
X109851475Y-131007723D01*
X100326788Y-131007723D01*
X100328010Y-130958138D01*
X100326719Y-130826509D01*
X100330287Y-130779768D01*
X100331461Y-130733634D01*
X100330331Y-130688166D01*
X100326985Y-130643423D01*
X100321512Y-130599462D01*
X100314002Y-130556343D01*
X100304543Y-130514123D01*
X100293224Y-130472862D01*
X100280135Y-130432617D01*
X100265363Y-130393447D01*
X100248998Y-130355411D01*
X100231129Y-130318566D01*
X100211845Y-130282971D01*
X100191235Y-130248686D01*
X100169387Y-130215767D01*
X100146391Y-130184274D01*
X100122335Y-130154264D01*
X100097308Y-130125797D01*
X100071400Y-130098931D01*
X100056546Y-130084907D01*
X113105606Y-130084907D01*
X113105944Y-130101141D01*
X113108578Y-130133077D01*
X113113128Y-130164366D01*
X113118765Y-130195079D01*
X113129969Y-130255072D01*
X113536569Y-131585945D01*
X113818267Y-132547081D01*
X113912637Y-132896691D01*
X113939943Y-133013147D01*
X113950849Y-133080946D01*
X113953216Y-133091114D01*
X113957433Y-133100635D01*
X113963435Y-133109513D01*
X113971160Y-133117753D01*
X113980545Y-133125356D01*
X113991525Y-133132327D01*
X114018018Y-133144385D01*
X114050132Y-133153958D01*
X114087361Y-133161072D01*
X114129195Y-133165757D01*
X114175129Y-133168040D01*
X114224654Y-133167950D01*
X114277263Y-133165516D01*
X114332448Y-133160766D01*
X114389702Y-133153728D01*
X114448518Y-133144431D01*
X114508387Y-133132903D01*
X114568802Y-133119174D01*
X114629257Y-133103270D01*
X114803058Y-133041488D01*
X114966295Y-132975366D01*
X115118744Y-132905142D01*
X115190854Y-132868566D01*
X115260185Y-132831055D01*
X115326707Y-132792638D01*
X115390394Y-132753346D01*
X115451218Y-132713207D01*
X115509151Y-132672252D01*
X115564165Y-132630511D01*
X115616233Y-132588014D01*
X115665327Y-132544791D01*
X115711419Y-132500871D01*
X115754482Y-132456285D01*
X115794487Y-132411062D01*
X115831407Y-132365232D01*
X115865214Y-132318826D01*
X115895881Y-132271873D01*
X115923379Y-132224402D01*
X115947682Y-132176445D01*
X115968761Y-132128031D01*
X115986588Y-132079190D01*
X116001136Y-132029951D01*
X116012377Y-131980345D01*
X116020284Y-131930401D01*
X116024828Y-131880150D01*
X116025982Y-131829621D01*
X116023718Y-131778845D01*
X116018009Y-131727850D01*
X116000505Y-131627233D01*
X115977872Y-131529991D01*
X115964684Y-131482749D01*
X115950276Y-131436485D01*
X115934669Y-131391245D01*
X115917884Y-131347074D01*
X115899942Y-131304016D01*
X115880864Y-131262117D01*
X115860671Y-131221422D01*
X115839383Y-131181976D01*
X115817022Y-131143823D01*
X115793609Y-131107008D01*
X115769164Y-131071577D01*
X115743709Y-131037575D01*
X115717264Y-131005046D01*
X115689850Y-130974035D01*
X115661488Y-130944588D01*
X115632199Y-130916749D01*
X115602004Y-130890563D01*
X115570924Y-130866076D01*
X115538980Y-130843332D01*
X115506192Y-130822376D01*
X115472583Y-130803253D01*
X115438171Y-130786009D01*
X115402979Y-130770687D01*
X115367028Y-130757334D01*
X115330337Y-130745993D01*
X115292929Y-130736711D01*
X115254824Y-130729532D01*
X115216043Y-130724500D01*
X115236818Y-130680837D01*
X115259698Y-130629650D01*
X115288160Y-130561906D01*
X115320145Y-130479866D01*
X115353595Y-130385791D01*
X115386450Y-130281943D01*
X115402011Y-130227059D01*
X115416652Y-130170580D01*
X115422110Y-130137538D01*
X115426297Y-130104222D01*
X115429239Y-130070690D01*
X115430960Y-130036999D01*
X115431485Y-130003208D01*
X115430839Y-129969374D01*
X115429046Y-129935555D01*
X115426132Y-129901810D01*
X115417039Y-129834768D01*
X115403759Y-129768711D01*
X115386490Y-129704103D01*
X115365432Y-129641406D01*
X115340783Y-129581082D01*
X115312743Y-129523593D01*
X115281510Y-129469404D01*
X115264759Y-129443690D01*
X115247284Y-129418975D01*
X115229111Y-129395316D01*
X115210263Y-129372770D01*
X115190767Y-129351397D01*
X115170647Y-129331252D01*
X115149927Y-129312395D01*
X115128634Y-129294883D01*
X115106790Y-129278773D01*
X115084423Y-129264125D01*
X115065016Y-129257363D01*
X115045439Y-129251033D01*
X115025689Y-129245136D01*
X115005765Y-129239669D01*
X114985667Y-129234633D01*
X114965392Y-129230027D01*
X114924309Y-129222105D01*
X114882504Y-129215899D01*
X114839968Y-129211405D01*
X114796691Y-129208619D01*
X114752661Y-129207539D01*
X114685181Y-129209109D01*
X114615945Y-129214507D01*
X114544915Y-129223722D01*
X114472054Y-129236744D01*
X114397325Y-129253563D01*
X114320689Y-129274171D01*
X114242110Y-129298556D01*
X114161550Y-129326710D01*
X114078972Y-129358622D01*
X113994338Y-129394283D01*
X113907611Y-129433683D01*
X113818754Y-129476812D01*
X113727728Y-129523660D01*
X113634497Y-129574219D01*
X113539023Y-129628476D01*
X113441269Y-129686424D01*
X113403172Y-129708526D01*
X113367945Y-129730257D01*
X113335483Y-129751627D01*
X113305683Y-129772646D01*
X113278440Y-129793322D01*
X113253652Y-129813665D01*
X113231213Y-129833682D01*
X113211020Y-129853384D01*
X113192969Y-129872780D01*
X113176956Y-129891878D01*
X113162878Y-129910687D01*
X113150629Y-129929218D01*
X113140107Y-129947477D01*
X113131207Y-129965476D01*
X113123826Y-129983222D01*
X113117859Y-130000725D01*
X113113203Y-130017994D01*
X113109753Y-130035037D01*
X113107407Y-130051865D01*
X113106059Y-130068485D01*
X113105606Y-130084907D01*
X100056546Y-130084907D01*
X100044699Y-130073723D01*
X100017295Y-130050234D01*
X99989275Y-130028520D01*
X99960729Y-130008641D01*
X99931746Y-129990654D01*
X99902415Y-129974619D01*
X99872825Y-129960593D01*
X99843065Y-129948636D01*
X99813223Y-129938805D01*
X99783389Y-129931158D01*
X99753651Y-129925756D01*
X99724098Y-129922654D01*
X99694820Y-129921913D01*
X99694820Y-129921915D01*
X99668517Y-129923340D01*
X99642581Y-129926810D01*
X99617080Y-129932367D01*
X99592080Y-129940057D01*
X99567647Y-129949922D01*
X99543849Y-129962006D01*
X99532209Y-129968894D01*
X99520753Y-129976352D01*
X99509488Y-129984387D01*
X99498424Y-129993004D01*
X99487569Y-130002209D01*
X99476931Y-130012006D01*
X99466518Y-130022401D01*
X99456339Y-130033400D01*
X99446402Y-130045008D01*
X99436715Y-130057231D01*
X99418127Y-130083542D01*
X99400641Y-130112376D01*
X99384323Y-130143778D01*
X99369241Y-130177789D01*
X99355461Y-130214455D01*
X99313437Y-130363142D01*
X99282793Y-130513736D01*
X99261255Y-130667160D01*
X99246547Y-130824334D01*
X99210508Y-131508983D01*
X99195819Y-131698742D01*
X99174309Y-131897784D01*
X99143702Y-132107031D01*
X99101722Y-132327405D01*
X99046093Y-132559827D01*
X98974541Y-132805220D01*
X98884791Y-133064506D01*
X98774566Y-133338605D01*
X98743175Y-133410810D01*
X98707352Y-133488894D01*
X98625672Y-133657525D01*
X98536058Y-133834140D01*
X98445040Y-134008383D01*
X98197548Y-134474505D01*
X98167122Y-134537258D01*
X98142870Y-134598138D01*
X98124607Y-134656908D01*
X98112148Y-134713327D01*
X98105308Y-134767156D01*
X98103902Y-134818156D01*
X90345592Y-134818156D01*
X89419514Y-134568292D01*
X88058571Y-134228524D01*
X87435022Y-134087262D01*
X86843871Y-133965173D01*
X86280956Y-133862327D01*
X85742112Y-133778791D01*
X85223178Y-133714634D01*
X84719989Y-133669925D01*
X84228383Y-133644733D01*
X83744198Y-133639126D01*
X83263269Y-133653173D01*
X82781434Y-133686943D01*
X82294530Y-133740503D01*
X81798395Y-133813924D01*
X81793007Y-133814641D01*
X81787683Y-133814998D01*
X81782431Y-133815008D01*
X81777263Y-133814680D01*
X81772188Y-133814025D01*
X81767216Y-133813056D01*
X81762359Y-133811783D01*
X81757625Y-133810217D01*
X81753026Y-133808369D01*
X81748572Y-133806251D01*
X81744272Y-133803873D01*
X81740137Y-133801246D01*
X81736178Y-133798382D01*
X81732404Y-133795292D01*
X81728825Y-133791987D01*
X81725453Y-133788477D01*
X81722297Y-133784775D01*
X81719367Y-133780890D01*
X81716674Y-133776835D01*
X81714228Y-133772620D01*
X81712039Y-133768257D01*
X81710117Y-133763755D01*
X81708473Y-133759128D01*
X81707117Y-133754385D01*
X81706059Y-133749538D01*
X81705309Y-133744597D01*
X81704878Y-133739575D01*
X81704775Y-133734482D01*
X81705012Y-133729328D01*
X81705597Y-133724126D01*
X81706543Y-133718887D01*
X81707858Y-133713620D01*
X82437608Y-131150982D01*
X85959326Y-131150982D01*
X85963670Y-131250926D01*
X85976946Y-131339297D01*
X85998521Y-131416445D01*
X86027760Y-131482724D01*
X86064027Y-131538486D01*
X86106688Y-131584082D01*
X86155109Y-131619866D01*
X86208653Y-131646188D01*
X86266686Y-131663402D01*
X86328573Y-131671859D01*
X86393680Y-131671912D01*
X86461371Y-131663913D01*
X86531012Y-131648214D01*
X86601968Y-131625168D01*
X86673603Y-131595126D01*
X86745284Y-131558440D01*
X86816374Y-131515463D01*
X86886239Y-131466548D01*
X86954245Y-131412045D01*
X87019756Y-131352308D01*
X87082138Y-131287688D01*
X87140755Y-131218539D01*
X87194973Y-131145211D01*
X87244157Y-131068057D01*
X87287672Y-130987430D01*
X87476711Y-130625242D01*
X87643137Y-130300757D01*
X87806709Y-129977414D01*
X89161511Y-130496762D01*
X89093028Y-130869041D01*
X89022422Y-131232650D01*
X88940904Y-131624135D01*
X88905807Y-131743932D01*
X88880004Y-131855161D01*
X88863025Y-131957945D01*
X88854402Y-132052404D01*
X88853664Y-132138661D01*
X88860342Y-132216836D01*
X88873967Y-132287052D01*
X88894070Y-132349429D01*
X88920180Y-132404091D01*
X88951828Y-132451157D01*
X88988546Y-132490750D01*
X89029863Y-132522991D01*
X89075310Y-132548001D01*
X89124417Y-132565903D01*
X89176716Y-132576818D01*
X89231736Y-132580867D01*
X89289009Y-132578172D01*
X89348064Y-132568854D01*
X89359370Y-132565891D01*
X90881239Y-132565891D01*
X90881489Y-132622384D01*
X90887310Y-132675803D01*
X90898497Y-132725729D01*
X90914849Y-132771739D01*
X90936161Y-132813414D01*
X90962233Y-132850333D01*
X90992859Y-132882074D01*
X91027838Y-132908217D01*
X91066967Y-132928341D01*
X91110043Y-132942026D01*
X91156863Y-132948850D01*
X91207224Y-132948392D01*
X91260923Y-132940232D01*
X91317757Y-132923950D01*
X91377524Y-132899123D01*
X91440020Y-132865332D01*
X91505043Y-132822156D01*
X91572390Y-132769173D01*
X91641857Y-132705964D01*
X91713243Y-132632106D01*
X91786344Y-132547180D01*
X91860957Y-132450764D01*
X91936879Y-132342438D01*
X92013908Y-132221781D01*
X92091841Y-132088372D01*
X92170474Y-131941791D01*
X93241727Y-132061472D01*
X93144710Y-132351237D01*
X93047035Y-132655915D01*
X92937559Y-133015988D01*
X92911391Y-133091152D01*
X92891639Y-133162296D01*
X92878030Y-133229378D01*
X92870289Y-133292357D01*
X92868141Y-133351192D01*
X92871313Y-133405840D01*
X92879531Y-133456261D01*
X92892519Y-133502413D01*
X92910004Y-133544253D01*
X92931712Y-133581742D01*
X92957368Y-133614836D01*
X92986697Y-133643495D01*
X93019427Y-133667678D01*
X93055282Y-133687341D01*
X93093988Y-133702445D01*
X93135271Y-133712946D01*
X93178856Y-133718805D01*
X93224470Y-133719979D01*
X93271838Y-133716427D01*
X93320686Y-133708106D01*
X93370740Y-133694977D01*
X93421725Y-133676996D01*
X93473367Y-133654123D01*
X93525392Y-133626316D01*
X93577525Y-133593533D01*
X93629493Y-133555733D01*
X93681020Y-133512875D01*
X93731834Y-133464916D01*
X93781659Y-133411815D01*
X93830221Y-133353531D01*
X93877246Y-133290022D01*
X93922460Y-133221247D01*
X93955173Y-133151563D01*
X94000134Y-133022283D01*
X94112084Y-132623321D01*
X95166928Y-132623321D01*
X95170364Y-132792298D01*
X95180882Y-132966422D01*
X95199763Y-133143282D01*
X95228288Y-133320469D01*
X95267738Y-133495572D01*
X95319395Y-133666184D01*
X95384540Y-133829892D01*
X95418829Y-133904393D01*
X95455829Y-133974257D01*
X95495322Y-134039639D01*
X95537093Y-134100690D01*
X95580923Y-134157564D01*
X95626597Y-134210415D01*
X95673897Y-134259394D01*
X95722606Y-134304655D01*
X95772507Y-134346351D01*
X95823383Y-134384635D01*
X95875018Y-134419660D01*
X95927195Y-134451578D01*
X95979696Y-134480544D01*
X96032304Y-134506709D01*
X96084803Y-134530227D01*
X96136976Y-134551251D01*
X96239476Y-134586428D01*
X96338066Y-134613463D01*
X96431013Y-134633582D01*
X96516581Y-134648007D01*
X96658636Y-134664672D01*
X96750348Y-134673251D01*
X96837077Y-134645041D01*
X96916481Y-134614943D01*
X96988829Y-134583135D01*
X97054388Y-134549795D01*
X97113426Y-134515103D01*
X97166210Y-134479236D01*
X97213007Y-134442373D01*
X97254086Y-134404692D01*
X97289713Y-134366373D01*
X97320157Y-134327594D01*
X97345684Y-134288533D01*
X97366563Y-134249368D01*
X97383061Y-134210279D01*
X97395445Y-134171444D01*
X97403983Y-134133041D01*
X97408942Y-134095249D01*
X97410591Y-134058247D01*
X97409196Y-134022213D01*
X97405025Y-133987325D01*
X97398346Y-133953762D01*
X97389426Y-133921703D01*
X97378533Y-133891327D01*
X97365934Y-133862810D01*
X97351897Y-133836334D01*
X97336690Y-133812075D01*
X97320579Y-133790212D01*
X97303833Y-133770924D01*
X97286719Y-133754389D01*
X97269504Y-133740787D01*
X97252456Y-133730295D01*
X97235843Y-133723092D01*
X97219932Y-133719356D01*
X97137889Y-133716931D01*
X97050348Y-133715606D01*
X96958829Y-133712247D01*
X96912052Y-133708826D01*
X96864850Y-133703723D01*
X96817413Y-133696545D01*
X96769930Y-133686902D01*
X96722591Y-133674401D01*
X96675587Y-133658652D01*
X96629106Y-133639262D01*
X96606121Y-133628080D01*
X96583339Y-133615840D01*
X96560783Y-133602495D01*
X96538476Y-133587995D01*
X96516443Y-133572292D01*
X96494706Y-133555335D01*
X96459451Y-133524453D01*
X96426808Y-133490891D01*
X96396697Y-133454806D01*
X96369036Y-133416354D01*
X96343743Y-133375691D01*
X96320738Y-133332973D01*
X96299939Y-133288356D01*
X96281265Y-133241997D01*
X96249964Y-133144677D01*
X96226184Y-133042261D01*
X96209274Y-132936001D01*
X96198582Y-132827144D01*
X96193457Y-132716941D01*
X96193248Y-132606641D01*
X96197304Y-132497495D01*
X96204973Y-132390751D01*
X96215603Y-132287659D01*
X96228544Y-132189469D01*
X96258752Y-132012794D01*
X96344891Y-131713464D01*
X96396466Y-131547913D01*
X96453754Y-131376650D01*
X96516785Y-131203331D01*
X96585592Y-131031615D01*
X96660206Y-130865159D01*
X96740657Y-130707622D01*
X96783082Y-130633341D01*
X96826978Y-130562661D01*
X96872349Y-130496039D01*
X96919200Y-130433933D01*
X96967533Y-130376800D01*
X97017354Y-130325098D01*
X97068665Y-130279283D01*
X97121471Y-130239812D01*
X97175776Y-130207143D01*
X97231583Y-130181734D01*
X97288898Y-130164041D01*
X97347722Y-130154521D01*
X97408061Y-130153632D01*
X97469919Y-130161831D01*
X97533298Y-130179576D01*
X97598204Y-130207323D01*
X97637243Y-130255412D01*
X97675530Y-130299056D01*
X97713046Y-130338406D01*
X97749776Y-130373610D01*
X97785701Y-130404817D01*
X97820804Y-130432175D01*
X97855069Y-130455834D01*
X97888476Y-130475943D01*
X97921011Y-130492650D01*
X97952654Y-130506105D01*
X97983389Y-130516456D01*
X98013199Y-130523852D01*
X98042066Y-130528443D01*
X98069972Y-130530377D01*
X98096901Y-130529803D01*
X98122836Y-130526870D01*
X98147758Y-130521727D01*
X98171651Y-130514523D01*
X98194498Y-130505407D01*
X98216281Y-130494528D01*
X98236982Y-130482034D01*
X98256585Y-130468075D01*
X98275072Y-130452799D01*
X98292426Y-130436356D01*
X98308629Y-130418895D01*
X98323665Y-130400563D01*
X98337516Y-130381511D01*
X98350164Y-130361887D01*
X98361593Y-130341840D01*
X98371785Y-130321519D01*
X98380723Y-130301073D01*
X98388389Y-130280651D01*
X98399558Y-130244796D01*
X98408467Y-130206615D01*
X98415070Y-130166338D01*
X98419324Y-130124197D01*
X98421183Y-130080425D01*
X98420604Y-130035253D01*
X98417543Y-129988913D01*
X98411953Y-129941636D01*
X98403793Y-129893655D01*
X98393016Y-129845201D01*
X98379579Y-129796506D01*
X98363437Y-129747801D01*
X98344547Y-129699319D01*
X98322862Y-129651291D01*
X98298340Y-129603949D01*
X98270935Y-129557524D01*
X98240604Y-129512248D01*
X98207302Y-129468354D01*
X98170985Y-129426073D01*
X98131607Y-129385636D01*
X98089126Y-129347275D01*
X98043496Y-129311223D01*
X97994673Y-129277710D01*
X97942613Y-129246969D01*
X97887271Y-129219232D01*
X97828603Y-129194729D01*
X97766564Y-129173693D01*
X97701111Y-129156356D01*
X97632199Y-129142950D01*
X97559783Y-129133705D01*
X97483819Y-129128854D01*
X97404263Y-129128629D01*
X97404262Y-129128628D01*
X97382438Y-129129382D01*
X97360361Y-129130492D01*
X97338026Y-129131959D01*
X97315433Y-129133786D01*
X97292578Y-129135977D01*
X97269458Y-129138533D01*
X97246070Y-129141457D01*
X97222412Y-129144751D01*
X97087364Y-129153105D01*
X96957868Y-129175550D01*
X96833842Y-129211147D01*
X96715202Y-129258953D01*
X96601865Y-129318026D01*
X96493748Y-129387425D01*
X96390769Y-129466209D01*
X96292844Y-129553436D01*
X96199891Y-129648165D01*
X96111827Y-129749453D01*
X96028568Y-129856359D01*
X95950032Y-129967943D01*
X95876135Y-130083261D01*
X95806795Y-130201373D01*
X95681454Y-130442212D01*
X95573344Y-130682926D01*
X95481801Y-130915984D01*
X95406163Y-131133853D01*
X95345766Y-131329001D01*
X95268038Y-131621001D01*
X95243309Y-131731725D01*
X95211139Y-131939973D01*
X95186301Y-132171366D01*
X95169293Y-132461900D01*
X95166928Y-132623321D01*
X94112084Y-132623321D01*
X94115991Y-132609398D01*
X94248405Y-132031520D01*
X94375751Y-131337575D01*
X94430766Y-130962368D01*
X94476405Y-130576491D01*
X94509965Y-130186062D01*
X94528742Y-129797196D01*
X94530034Y-129416009D01*
X94511137Y-129048618D01*
X94469349Y-128701136D01*
X94401965Y-128379682D01*
X94376746Y-128333102D01*
X94350701Y-128286663D01*
X94323957Y-128240742D01*
X94296642Y-128195718D01*
X94268880Y-128151968D01*
X94240798Y-128109870D01*
X94212524Y-128069801D01*
X94184182Y-128032139D01*
X94155900Y-127997262D01*
X94127804Y-127965547D01*
X94100021Y-127937372D01*
X94086285Y-127924730D01*
X94072676Y-127913115D01*
X94059207Y-127902573D01*
X94045896Y-127893153D01*
X94032757Y-127884900D01*
X94019807Y-127877864D01*
X94007061Y-127872089D01*
X93994536Y-127867625D01*
X93982247Y-127864517D01*
X93970209Y-127862814D01*
X93956348Y-127861435D01*
X93942355Y-127860253D01*
X93928220Y-127859306D01*
X93913933Y-127858629D01*
X93859140Y-127858506D01*
X93802634Y-127862461D01*
X93744601Y-127871004D01*
X93685224Y-127884650D01*
X93624689Y-127903911D01*
X93563179Y-127929300D01*
X93500879Y-127961328D01*
X93437975Y-128000510D01*
X93374649Y-128047358D01*
X93342886Y-128073817D01*
X93311087Y-128102384D01*
X93279274Y-128133124D01*
X93247472Y-128166101D01*
X93215703Y-128201379D01*
X93183991Y-128239022D01*
X93152357Y-128279095D01*
X93120826Y-128321660D01*
X93089420Y-128366783D01*
X93058163Y-128414527D01*
X93027077Y-128464957D01*
X92996186Y-128518136D01*
X92935079Y-128633000D01*
X92502795Y-129457171D01*
X91971601Y-130441714D01*
X91440393Y-131410140D01*
X91008064Y-132185962D01*
X90970635Y-132252057D01*
X90939993Y-132317604D01*
X90915935Y-132382181D01*
X90898259Y-132445369D01*
X90886761Y-132506746D01*
X90881239Y-132565891D01*
X89359370Y-132565891D01*
X89408432Y-132553035D01*
X89469645Y-132530837D01*
X89531231Y-132502380D01*
X89592723Y-132467788D01*
X89653650Y-132427180D01*
X89713543Y-132380680D01*
X89771932Y-132328407D01*
X89828349Y-132270484D01*
X89882323Y-132207033D01*
X89933385Y-132138175D01*
X89981067Y-132064031D01*
X90024897Y-131984723D01*
X90064407Y-131900372D01*
X90099128Y-131811101D01*
X90613141Y-130182084D01*
X90778227Y-129627841D01*
X90932766Y-129075433D01*
X91064166Y-128555172D01*
X91159838Y-128097374D01*
X91183802Y-128030982D01*
X91200439Y-127965269D01*
X91210091Y-127900555D01*
X91213097Y-127837157D01*
X91209800Y-127775391D01*
X91200541Y-127715577D01*
X91185661Y-127658032D01*
X91165500Y-127603074D01*
X91140401Y-127551020D01*
X91110705Y-127502188D01*
X91076751Y-127456896D01*
X91038883Y-127415462D01*
X90997440Y-127378203D01*
X90952765Y-127345437D01*
X90905197Y-127317483D01*
X90855079Y-127294657D01*
X90802752Y-127277277D01*
X90748557Y-127265662D01*
X90692834Y-127260128D01*
X90635926Y-127260994D01*
X90578173Y-127268578D01*
X90519916Y-127283197D01*
X90461497Y-127305168D01*
X90403257Y-127334811D01*
X90345537Y-127372442D01*
X90288678Y-127418378D01*
X90233022Y-127472939D01*
X90178909Y-127536442D01*
X90126681Y-127609204D01*
X90076679Y-127691543D01*
X90029243Y-127783777D01*
X89984716Y-127886224D01*
X89937131Y-127971035D01*
X89886770Y-128065545D01*
X89780947Y-128275287D01*
X89673701Y-128498705D01*
X89571483Y-128719052D01*
X89407948Y-129083553D01*
X89341964Y-129234824D01*
X88781177Y-129022660D01*
X88574288Y-128941472D01*
X88392828Y-128867339D01*
X88262850Y-128809419D01*
X88225308Y-128789400D01*
X88214823Y-128782126D01*
X88210406Y-128776867D01*
X88206832Y-128765671D01*
X88204260Y-128753458D01*
X88201892Y-128726126D01*
X88202846Y-128695162D01*
X88206664Y-128660858D01*
X88212891Y-128623503D01*
X88221070Y-128583391D01*
X88241457Y-128496054D01*
X88264173Y-128401177D01*
X88285567Y-128301086D01*
X88294627Y-128249814D01*
X88301987Y-128198113D01*
X88307190Y-128146272D01*
X88309780Y-128094584D01*
X88305211Y-127996251D01*
X88298733Y-127901687D01*
X88290413Y-127810845D01*
X88280318Y-127723679D01*
X88268516Y-127640143D01*
X88255072Y-127560191D01*
X88240055Y-127483778D01*
X88223531Y-127410856D01*
X88205567Y-127341380D01*
X88186231Y-127275305D01*
X88165589Y-127212584D01*
X88143710Y-127153170D01*
X88120658Y-127097019D01*
X88096503Y-127044084D01*
X88071311Y-126994319D01*
X88045148Y-126947679D01*
X88018083Y-126904116D01*
X87990182Y-126863586D01*
X87961511Y-126826042D01*
X87932140Y-126791438D01*
X87902133Y-126759728D01*
X87871559Y-126730867D01*
X87840485Y-126704807D01*
X87808977Y-126681504D01*
X87777103Y-126660911D01*
X87744929Y-126642982D01*
X87712524Y-126627672D01*
X87679953Y-126614934D01*
X87647284Y-126604722D01*
X87614585Y-126596990D01*
X87581921Y-126591693D01*
X87549361Y-126588784D01*
X87524151Y-126588143D01*
X87499076Y-126588897D01*
X87474168Y-126591024D01*
X87449458Y-126594504D01*
X87424978Y-126599313D01*
X87400759Y-126605430D01*
X87376833Y-126612835D01*
X87353231Y-126621504D01*
X87329985Y-126631417D01*
X87307126Y-126642552D01*
X87284686Y-126654887D01*
X87262696Y-126668400D01*
X87241188Y-126683070D01*
X87220193Y-126698875D01*
X87199743Y-126715793D01*
X87179870Y-126733804D01*
X87160604Y-126752884D01*
X87141978Y-126773013D01*
X87124022Y-126794169D01*
X87106769Y-126816330D01*
X87090250Y-126839475D01*
X87074496Y-126863581D01*
X87059539Y-126888627D01*
X87045410Y-126914592D01*
X87032142Y-126941454D01*
X87019764Y-126969192D01*
X87008310Y-126997782D01*
X86997810Y-127027205D01*
X86988297Y-127057438D01*
X86979800Y-127088459D01*
X86972353Y-127120247D01*
X86965986Y-127152781D01*
X86866709Y-127678357D01*
X86799728Y-127997584D01*
X86719219Y-128352424D01*
X86623706Y-128741367D01*
X86511713Y-129162903D01*
X86381766Y-129615523D01*
X86232388Y-130097717D01*
X86156421Y-130288540D01*
X86093831Y-130465324D01*
X86043984Y-130628421D01*
X86006245Y-130778183D01*
X85979979Y-130914963D01*
X85964551Y-131039111D01*
X85959326Y-131150982D01*
X82437608Y-131150982D01*
X82744693Y-130072602D01*
X84760229Y-125458155D01*
X84761303Y-125455779D01*
X84762424Y-125453465D01*
X84763594Y-125451214D01*
X84764816Y-125449024D01*
X84766096Y-125446895D01*
X84767435Y-125444826D01*
X84768837Y-125442817D01*
X84770307Y-125440867D01*
X84771846Y-125438975D01*
X84773460Y-125437140D01*
X84775150Y-125435362D01*
X84776921Y-125433641D01*
X84778776Y-125431975D01*
X84780718Y-125430364D01*
X84782751Y-125428808D01*
X84784879Y-125427305D01*
X84904045Y-125353333D01*
X85142609Y-125227531D01*
X85504392Y-125070388D01*
X85732684Y-124986467D01*
X85993213Y-124902394D01*
X86286458Y-124820731D01*
X86612894Y-124744039D01*
X86973001Y-124674879D01*
X87367256Y-124615812D01*
X87796135Y-124569400D01*
X88260118Y-124538203D01*
X88759680Y-124524783D01*
X89295301Y-124531700D01*
G37*
G36*
X114559409Y-129921968D02*
G01*
X114588460Y-129924689D01*
X114602557Y-129926769D01*
X114616359Y-129929345D01*
X114629857Y-129932431D01*
X114643044Y-129936039D01*
X114655912Y-129940183D01*
X114668453Y-129944875D01*
X114680660Y-129950129D01*
X114692525Y-129955957D01*
X114704040Y-129962372D01*
X114715196Y-129969387D01*
X114725988Y-129977016D01*
X114736406Y-129985271D01*
X114746442Y-129994164D01*
X114756090Y-130003710D01*
X114765342Y-130013921D01*
X114774188Y-130024810D01*
X114782623Y-130036390D01*
X114790637Y-130048673D01*
X114798224Y-130061674D01*
X114805376Y-130075404D01*
X114812084Y-130089877D01*
X114818340Y-130105106D01*
X114824139Y-130121103D01*
X114829470Y-130137882D01*
X114834327Y-130155455D01*
X114838702Y-130173836D01*
X114845410Y-130216447D01*
X114846852Y-130258342D01*
X114843362Y-130299481D01*
X114835269Y-130339822D01*
X114822906Y-130379322D01*
X114806603Y-130417941D01*
X114786692Y-130455635D01*
X114763503Y-130492363D01*
X114737369Y-130528084D01*
X114708621Y-130562756D01*
X114677590Y-130596336D01*
X114644607Y-130628783D01*
X114610003Y-130660055D01*
X114574110Y-130690110D01*
X114499782Y-130746403D01*
X114424273Y-130797326D01*
X114350233Y-130842545D01*
X114280312Y-130881726D01*
X114217161Y-130914534D01*
X114121769Y-130959690D01*
X114085260Y-130975338D01*
X113732878Y-130150117D01*
X114132680Y-130006253D01*
X114229907Y-129975200D01*
X114277383Y-129961617D01*
X114323925Y-129949622D01*
X114369400Y-129939435D01*
X114413677Y-129931275D01*
X114456622Y-129925361D01*
X114498103Y-129921913D01*
X114529270Y-129921077D01*
X114559409Y-129921968D01*
G37*
G36*
X115002042Y-131322016D02*
G01*
X115036279Y-131323916D01*
X115069991Y-131327798D01*
X115103082Y-131333780D01*
X115119364Y-131337595D01*
X115135456Y-131341977D01*
X115151343Y-131346943D01*
X115167016Y-131352506D01*
X115182460Y-131358680D01*
X115197665Y-131365482D01*
X115212619Y-131372924D01*
X115227309Y-131381022D01*
X115241723Y-131389789D01*
X115255849Y-131399241D01*
X115269675Y-131409393D01*
X115283190Y-131420257D01*
X115296381Y-131431850D01*
X115309235Y-131444186D01*
X115321742Y-131457278D01*
X115333888Y-131471142D01*
X115345663Y-131485793D01*
X115357053Y-131501244D01*
X115368047Y-131517510D01*
X115378633Y-131534606D01*
X115388798Y-131552546D01*
X115398531Y-131571346D01*
X115407819Y-131591018D01*
X115416652Y-131611578D01*
X115437294Y-131671529D01*
X115449554Y-131729159D01*
X115453939Y-131784509D01*
X115450958Y-131837620D01*
X115441117Y-131888531D01*
X115424925Y-131937282D01*
X115402889Y-131983915D01*
X115375517Y-132028469D01*
X115343317Y-132070984D01*
X115306797Y-132111501D01*
X115266463Y-132150060D01*
X115222825Y-132186701D01*
X115176390Y-132221465D01*
X115127665Y-132254392D01*
X115025378Y-132314894D01*
X114920026Y-132368531D01*
X114815671Y-132415625D01*
X114626200Y-132491469D01*
X114489462Y-132545004D01*
X114451022Y-132564210D01*
X114441061Y-132572064D01*
X114437950Y-132578806D01*
X114206182Y-131611578D01*
X114275224Y-131567563D01*
X114353476Y-131522262D01*
X114453727Y-131470071D01*
X114510424Y-131443416D01*
X114570609Y-131417468D01*
X114633610Y-131393038D01*
X114698756Y-131370934D01*
X114765376Y-131351966D01*
X114832801Y-131336946D01*
X114900358Y-131326681D01*
X114967377Y-131321983D01*
X115002042Y-131322016D01*
G37*
G36*
X93649098Y-129237502D02*
G01*
X93652169Y-129237784D01*
X93655189Y-129238235D01*
X93676211Y-129246798D01*
X93694458Y-129264096D01*
X93710069Y-129289539D01*
X93723181Y-129322537D01*
X93733932Y-129362497D01*
X93742461Y-129408830D01*
X93753406Y-129518252D01*
X93757121Y-129646075D01*
X93754712Y-129787576D01*
X93747284Y-129938027D01*
X93735943Y-130092705D01*
X93705947Y-130395834D01*
X93673569Y-130659160D01*
X93637051Y-130915186D01*
X92580993Y-130734887D01*
X93600465Y-129251877D01*
X93604300Y-129249672D01*
X93608079Y-129247654D01*
X93611800Y-129245822D01*
X93615465Y-129244173D01*
X93619074Y-129242707D01*
X93622627Y-129241423D01*
X93626125Y-129240318D01*
X93629568Y-129239392D01*
X93632956Y-129238643D01*
X93636291Y-129238069D01*
X93639572Y-129237669D01*
X93642800Y-129237443D01*
X93645975Y-129237387D01*
X93649098Y-129237502D01*
G37*
D11*
X100891304Y-155782608D02*
X93000000Y-156500000D01*
X94500000Y-150000000D01*
X96250000Y-146500000D01*
X100891304Y-155782608D01*
G36*
X100891304Y-155782608D02*
G01*
X93000000Y-156500000D01*
X94500000Y-150000000D01*
X96250000Y-146500000D01*
X100891304Y-155782608D01*
G37*
X120500000Y-70500000D02*
X124500000Y-71000000D01*
X129000000Y-68500000D01*
X129500000Y-77500000D01*
X125000000Y-74000000D01*
X120000000Y-73500000D01*
X114500000Y-77000000D01*
X115500000Y-67500000D01*
X120500000Y-70500000D01*
G36*
X120500000Y-70500000D02*
G01*
X124500000Y-71000000D01*
X129000000Y-68500000D01*
X129500000Y-77500000D01*
X125000000Y-74000000D01*
X120000000Y-73500000D01*
X114500000Y-77000000D01*
X115500000Y-67500000D01*
X120500000Y-70500000D01*
G37*
X143000000Y-32000000D02*
X134000000Y-31500000D01*
X141594565Y-21225000D01*
X143000000Y-32000000D01*
G36*
X143000000Y-32000000D02*
G01*
X134000000Y-31500000D01*
X141594565Y-21225000D01*
X143000000Y-32000000D01*
G37*
X141594565Y-21225000D02*
X141500000Y-20500000D01*
X142500000Y-20000000D01*
X141594565Y-21225000D01*
G36*
X141594565Y-21225000D02*
G01*
X141500000Y-20500000D01*
X142500000Y-20000000D01*
X141594565Y-21225000D01*
G37*
X121500000Y-144000000D02*
X125000000Y-151500000D01*
X115500000Y-152500000D01*
X121000000Y-143000000D01*
X121500000Y-144000000D01*
G36*
X121500000Y-144000000D02*
G01*
X125000000Y-151500000D01*
X115500000Y-152500000D01*
X121000000Y-143000000D01*
X121500000Y-144000000D01*
G37*
X77000000Y-153500000D02*
X78000000Y-154000000D01*
X76500000Y-160000000D01*
X67000000Y-157000000D01*
X62500000Y-152000000D01*
X72500000Y-148500000D01*
X77000000Y-153500000D01*
G36*
X77000000Y-153500000D02*
G01*
X78000000Y-154000000D01*
X76500000Y-160000000D01*
X67000000Y-157000000D01*
X62500000Y-152000000D01*
X72500000Y-148500000D01*
X77000000Y-153500000D01*
G37*
X103000000Y-26500000D02*
X112500000Y-35000000D01*
X104500000Y-39000000D01*
X102000000Y-26000000D01*
X103000000Y-26500000D01*
G36*
X103000000Y-26500000D02*
G01*
X112500000Y-35000000D01*
X104500000Y-39000000D01*
X102000000Y-26000000D01*
X103000000Y-26500000D01*
G37*
D12*
X111882204Y-85734438D02*
X111215537Y-84782057D01*
X110739347Y-85734438D02*
X110739347Y-83734438D01*
X110739347Y-83734438D02*
X111501252Y-83734438D01*
X111501252Y-83734438D02*
X111691728Y-83829676D01*
X111691728Y-83829676D02*
X111786966Y-83924914D01*
X111786966Y-83924914D02*
X111882204Y-84115390D01*
X111882204Y-84115390D02*
X111882204Y-84401104D01*
X111882204Y-84401104D02*
X111786966Y-84591580D01*
X111786966Y-84591580D02*
X111691728Y-84686819D01*
X111691728Y-84686819D02*
X111501252Y-84782057D01*
X111501252Y-84782057D02*
X110739347Y-84782057D01*
X113596490Y-84401104D02*
X113596490Y-85734438D01*
X112739347Y-84401104D02*
X112739347Y-85448723D01*
X112739347Y-85448723D02*
X112834585Y-85639200D01*
X112834585Y-85639200D02*
X113025061Y-85734438D01*
X113025061Y-85734438D02*
X113310776Y-85734438D01*
X113310776Y-85734438D02*
X113501252Y-85639200D01*
X113501252Y-85639200D02*
X113596490Y-85543961D01*
X114358395Y-84401104D02*
X115406014Y-84401104D01*
X115406014Y-84401104D02*
X114358395Y-85734438D01*
X114358395Y-85734438D02*
X115406014Y-85734438D01*
X117025062Y-85734438D02*
X117025062Y-84686819D01*
X117025062Y-84686819D02*
X116929824Y-84496342D01*
X116929824Y-84496342D02*
X116739348Y-84401104D01*
X116739348Y-84401104D02*
X116358395Y-84401104D01*
X116358395Y-84401104D02*
X116167919Y-84496342D01*
X117025062Y-85639200D02*
X116834586Y-85734438D01*
X116834586Y-85734438D02*
X116358395Y-85734438D01*
X116358395Y-85734438D02*
X116167919Y-85639200D01*
X116167919Y-85639200D02*
X116072681Y-85448723D01*
X116072681Y-85448723D02*
X116072681Y-85258247D01*
X116072681Y-85258247D02*
X116167919Y-85067771D01*
X116167919Y-85067771D02*
X116358395Y-84972533D01*
X116358395Y-84972533D02*
X116834586Y-84972533D01*
X116834586Y-84972533D02*
X117025062Y-84877295D01*
X117977443Y-84401104D02*
X117977443Y-85734438D01*
X117977443Y-84591580D02*
X118072681Y-84496342D01*
X118072681Y-84496342D02*
X118263157Y-84401104D01*
X118263157Y-84401104D02*
X118548872Y-84401104D01*
X118548872Y-84401104D02*
X118739348Y-84496342D01*
X118739348Y-84496342D02*
X118834586Y-84686819D01*
X118834586Y-84686819D02*
X118834586Y-85734438D01*
X119786967Y-84401104D02*
X119786967Y-85734438D01*
X119786967Y-84591580D02*
X119882205Y-84496342D01*
X119882205Y-84496342D02*
X120072681Y-84401104D01*
X120072681Y-84401104D02*
X120358396Y-84401104D01*
X120358396Y-84401104D02*
X120548872Y-84496342D01*
X120548872Y-84496342D02*
X120644110Y-84686819D01*
X120644110Y-84686819D02*
X120644110Y-85734438D01*
X122453634Y-85734438D02*
X122453634Y-84686819D01*
X122453634Y-84686819D02*
X122358396Y-84496342D01*
X122358396Y-84496342D02*
X122167920Y-84401104D01*
X122167920Y-84401104D02*
X121786967Y-84401104D01*
X121786967Y-84401104D02*
X121596491Y-84496342D01*
X122453634Y-85639200D02*
X122263158Y-85734438D01*
X122263158Y-85734438D02*
X121786967Y-85734438D01*
X121786967Y-85734438D02*
X121596491Y-85639200D01*
X121596491Y-85639200D02*
X121501253Y-85448723D01*
X121501253Y-85448723D02*
X121501253Y-85258247D01*
X121501253Y-85258247D02*
X121596491Y-85067771D01*
X121596491Y-85067771D02*
X121786967Y-84972533D01*
X121786967Y-84972533D02*
X122263158Y-84972533D01*
X122263158Y-84972533D02*
X122453634Y-84877295D01*
X123501253Y-83734438D02*
X123310777Y-84115390D01*
X124263158Y-85639200D02*
X124453634Y-85734438D01*
X124453634Y-85734438D02*
X124834586Y-85734438D01*
X124834586Y-85734438D02*
X125025063Y-85639200D01*
X125025063Y-85639200D02*
X125120301Y-85448723D01*
X125120301Y-85448723D02*
X125120301Y-85353485D01*
X125120301Y-85353485D02*
X125025063Y-85163009D01*
X125025063Y-85163009D02*
X124834586Y-85067771D01*
X124834586Y-85067771D02*
X124548872Y-85067771D01*
X124548872Y-85067771D02*
X124358396Y-84972533D01*
X124358396Y-84972533D02*
X124263158Y-84782057D01*
X124263158Y-84782057D02*
X124263158Y-84686819D01*
X124263158Y-84686819D02*
X124358396Y-84496342D01*
X124358396Y-84496342D02*
X124548872Y-84401104D01*
X124548872Y-84401104D02*
X124834586Y-84401104D01*
X124834586Y-84401104D02*
X125025063Y-84496342D01*
X128644111Y-85543961D02*
X128548873Y-85639200D01*
X128548873Y-85639200D02*
X128263159Y-85734438D01*
X128263159Y-85734438D02*
X128072683Y-85734438D01*
X128072683Y-85734438D02*
X127786968Y-85639200D01*
X127786968Y-85639200D02*
X127596492Y-85448723D01*
X127596492Y-85448723D02*
X127501254Y-85258247D01*
X127501254Y-85258247D02*
X127406016Y-84877295D01*
X127406016Y-84877295D02*
X127406016Y-84591580D01*
X127406016Y-84591580D02*
X127501254Y-84210628D01*
X127501254Y-84210628D02*
X127596492Y-84020152D01*
X127596492Y-84020152D02*
X127786968Y-83829676D01*
X127786968Y-83829676D02*
X128072683Y-83734438D01*
X128072683Y-83734438D02*
X128263159Y-83734438D01*
X128263159Y-83734438D02*
X128548873Y-83829676D01*
X128548873Y-83829676D02*
X128644111Y-83924914D01*
X130358397Y-85734438D02*
X130358397Y-84686819D01*
X130358397Y-84686819D02*
X130263159Y-84496342D01*
X130263159Y-84496342D02*
X130072683Y-84401104D01*
X130072683Y-84401104D02*
X129691730Y-84401104D01*
X129691730Y-84401104D02*
X129501254Y-84496342D01*
X130358397Y-85639200D02*
X130167921Y-85734438D01*
X130167921Y-85734438D02*
X129691730Y-85734438D01*
X129691730Y-85734438D02*
X129501254Y-85639200D01*
X129501254Y-85639200D02*
X129406016Y-85448723D01*
X129406016Y-85448723D02*
X129406016Y-85258247D01*
X129406016Y-85258247D02*
X129501254Y-85067771D01*
X129501254Y-85067771D02*
X129691730Y-84972533D01*
X129691730Y-84972533D02*
X130167921Y-84972533D01*
X130167921Y-84972533D02*
X130358397Y-84877295D01*
X131025064Y-84401104D02*
X131786968Y-84401104D01*
X131310778Y-83734438D02*
X131310778Y-85448723D01*
X131310778Y-85448723D02*
X131406016Y-85639200D01*
X131406016Y-85639200D02*
X131596492Y-85734438D01*
X131596492Y-85734438D02*
X131786968Y-85734438D01*
X132453635Y-85543961D02*
X132548873Y-85639200D01*
X132548873Y-85639200D02*
X132453635Y-85734438D01*
X132453635Y-85734438D02*
X132358397Y-85639200D01*
X132358397Y-85639200D02*
X132453635Y-85543961D01*
X132453635Y-85543961D02*
X132453635Y-85734438D01*
X132453635Y-84972533D02*
X132358397Y-83829676D01*
X132358397Y-83829676D02*
X132453635Y-83734438D01*
X132453635Y-83734438D02*
X132548873Y-83829676D01*
X132548873Y-83829676D02*
X132453635Y-84972533D01*
X132453635Y-84972533D02*
X132453635Y-83734438D01*
D13*
X98523333Y-158084819D02*
X98190000Y-157608628D01*
X97951905Y-158084819D02*
X97951905Y-157084819D01*
X97951905Y-157084819D02*
X98332857Y-157084819D01*
X98332857Y-157084819D02*
X98428095Y-157132438D01*
X98428095Y-157132438D02*
X98475714Y-157180057D01*
X98475714Y-157180057D02*
X98523333Y-157275295D01*
X98523333Y-157275295D02*
X98523333Y-157418152D01*
X98523333Y-157418152D02*
X98475714Y-157513390D01*
X98475714Y-157513390D02*
X98428095Y-157561009D01*
X98428095Y-157561009D02*
X98332857Y-157608628D01*
X98332857Y-157608628D02*
X97951905Y-157608628D01*
X98856667Y-157084819D02*
X99475714Y-157084819D01*
X99475714Y-157084819D02*
X99142381Y-157465771D01*
X99142381Y-157465771D02*
X99285238Y-157465771D01*
X99285238Y-157465771D02*
X99380476Y-157513390D01*
X99380476Y-157513390D02*
X99428095Y-157561009D01*
X99428095Y-157561009D02*
X99475714Y-157656247D01*
X99475714Y-157656247D02*
X99475714Y-157894342D01*
X99475714Y-157894342D02*
X99428095Y-157989580D01*
X99428095Y-157989580D02*
X99380476Y-158037200D01*
X99380476Y-158037200D02*
X99285238Y-158084819D01*
X99285238Y-158084819D02*
X98999524Y-158084819D01*
X98999524Y-158084819D02*
X98904286Y-158037200D01*
X98904286Y-158037200D02*
X98856667Y-157989580D01*
X68643333Y-153084819D02*
X68310000Y-152608628D01*
X68071905Y-153084819D02*
X68071905Y-152084819D01*
X68071905Y-152084819D02*
X68452857Y-152084819D01*
X68452857Y-152084819D02*
X68548095Y-152132438D01*
X68548095Y-152132438D02*
X68595714Y-152180057D01*
X68595714Y-152180057D02*
X68643333Y-152275295D01*
X68643333Y-152275295D02*
X68643333Y-152418152D01*
X68643333Y-152418152D02*
X68595714Y-152513390D01*
X68595714Y-152513390D02*
X68548095Y-152561009D01*
X68548095Y-152561009D02*
X68452857Y-152608628D01*
X68452857Y-152608628D02*
X68071905Y-152608628D01*
X69548095Y-152084819D02*
X69071905Y-152084819D01*
X69071905Y-152084819D02*
X69024286Y-152561009D01*
X69024286Y-152561009D02*
X69071905Y-152513390D01*
X69071905Y-152513390D02*
X69167143Y-152465771D01*
X69167143Y-152465771D02*
X69405238Y-152465771D01*
X69405238Y-152465771D02*
X69500476Y-152513390D01*
X69500476Y-152513390D02*
X69548095Y-152561009D01*
X69548095Y-152561009D02*
X69595714Y-152656247D01*
X69595714Y-152656247D02*
X69595714Y-152894342D01*
X69595714Y-152894342D02*
X69548095Y-152989580D01*
X69548095Y-152989580D02*
X69500476Y-153037200D01*
X69500476Y-153037200D02*
X69405238Y-153084819D01*
X69405238Y-153084819D02*
X69167143Y-153084819D01*
X69167143Y-153084819D02*
X69071905Y-153037200D01*
X69071905Y-153037200D02*
X69024286Y-152989580D01*
X68643333Y-149034819D02*
X68310000Y-148558628D01*
X68071905Y-149034819D02*
X68071905Y-148034819D01*
X68071905Y-148034819D02*
X68452857Y-148034819D01*
X68452857Y-148034819D02*
X68548095Y-148082438D01*
X68548095Y-148082438D02*
X68595714Y-148130057D01*
X68595714Y-148130057D02*
X68643333Y-148225295D01*
X68643333Y-148225295D02*
X68643333Y-148368152D01*
X68643333Y-148368152D02*
X68595714Y-148463390D01*
X68595714Y-148463390D02*
X68548095Y-148511009D01*
X68548095Y-148511009D02*
X68452857Y-148558628D01*
X68452857Y-148558628D02*
X68071905Y-148558628D01*
X69500476Y-148368152D02*
X69500476Y-149034819D01*
X69262381Y-147987200D02*
X69024286Y-148701485D01*
X69024286Y-148701485D02*
X69643333Y-148701485D01*
X114990476Y-102429819D02*
X114990476Y-101429819D01*
X114990476Y-101429819D02*
X115323809Y-102144104D01*
X115323809Y-102144104D02*
X115657142Y-101429819D01*
X115657142Y-101429819D02*
X115657142Y-102429819D01*
X116657142Y-102429819D02*
X116085714Y-102429819D01*
X116371428Y-102429819D02*
X116371428Y-101429819D01*
X116371428Y-101429819D02*
X116276190Y-101572676D01*
X116276190Y-101572676D02*
X116180952Y-101667914D01*
X116180952Y-101667914D02*
X116085714Y-101715533D01*
X90531905Y-87494819D02*
X90531905Y-86494819D01*
X90531905Y-86494819D02*
X90770000Y-86494819D01*
X90770000Y-86494819D02*
X90912857Y-86542438D01*
X90912857Y-86542438D02*
X91008095Y-86637676D01*
X91008095Y-86637676D02*
X91055714Y-86732914D01*
X91055714Y-86732914D02*
X91103333Y-86923390D01*
X91103333Y-86923390D02*
X91103333Y-87066247D01*
X91103333Y-87066247D02*
X91055714Y-87256723D01*
X91055714Y-87256723D02*
X91008095Y-87351961D01*
X91008095Y-87351961D02*
X90912857Y-87447200D01*
X90912857Y-87447200D02*
X90770000Y-87494819D01*
X90770000Y-87494819D02*
X90531905Y-87494819D01*
X91436667Y-86494819D02*
X92055714Y-86494819D01*
X92055714Y-86494819D02*
X91722381Y-86875771D01*
X91722381Y-86875771D02*
X91865238Y-86875771D01*
X91865238Y-86875771D02*
X91960476Y-86923390D01*
X91960476Y-86923390D02*
X92008095Y-86971009D01*
X92008095Y-86971009D02*
X92055714Y-87066247D01*
X92055714Y-87066247D02*
X92055714Y-87304342D01*
X92055714Y-87304342D02*
X92008095Y-87399580D01*
X92008095Y-87399580D02*
X91960476Y-87447200D01*
X91960476Y-87447200D02*
X91865238Y-87494819D01*
X91865238Y-87494819D02*
X91579524Y-87494819D01*
X91579524Y-87494819D02*
X91484286Y-87447200D01*
X91484286Y-87447200D02*
X91436667Y-87399580D01*
X80531905Y-112494819D02*
X80531905Y-111494819D01*
X80531905Y-111494819D02*
X80770000Y-111494819D01*
X80770000Y-111494819D02*
X80912857Y-111542438D01*
X80912857Y-111542438D02*
X81008095Y-111637676D01*
X81008095Y-111637676D02*
X81055714Y-111732914D01*
X81055714Y-111732914D02*
X81103333Y-111923390D01*
X81103333Y-111923390D02*
X81103333Y-112066247D01*
X81103333Y-112066247D02*
X81055714Y-112256723D01*
X81055714Y-112256723D02*
X81008095Y-112351961D01*
X81008095Y-112351961D02*
X80912857Y-112447200D01*
X80912857Y-112447200D02*
X80770000Y-112494819D01*
X80770000Y-112494819D02*
X80531905Y-112494819D01*
X81960476Y-111828152D02*
X81960476Y-112494819D01*
X81722381Y-111447200D02*
X81484286Y-112161485D01*
X81484286Y-112161485D02*
X82103333Y-112161485D01*
X114833333Y-161659580D02*
X114785714Y-161707200D01*
X114785714Y-161707200D02*
X114642857Y-161754819D01*
X114642857Y-161754819D02*
X114547619Y-161754819D01*
X114547619Y-161754819D02*
X114404762Y-161707200D01*
X114404762Y-161707200D02*
X114309524Y-161611961D01*
X114309524Y-161611961D02*
X114261905Y-161516723D01*
X114261905Y-161516723D02*
X114214286Y-161326247D01*
X114214286Y-161326247D02*
X114214286Y-161183390D01*
X114214286Y-161183390D02*
X114261905Y-160992914D01*
X114261905Y-160992914D02*
X114309524Y-160897676D01*
X114309524Y-160897676D02*
X114404762Y-160802438D01*
X114404762Y-160802438D02*
X114547619Y-160754819D01*
X114547619Y-160754819D02*
X114642857Y-160754819D01*
X114642857Y-160754819D02*
X114785714Y-160802438D01*
X114785714Y-160802438D02*
X114833333Y-160850057D01*
X115785714Y-161754819D02*
X115214286Y-161754819D01*
X115500000Y-161754819D02*
X115500000Y-160754819D01*
X115500000Y-160754819D02*
X115404762Y-160897676D01*
X115404762Y-160897676D02*
X115309524Y-160992914D01*
X115309524Y-160992914D02*
X115214286Y-161040533D01*
X120416667Y-68407200D02*
X120559524Y-68454819D01*
X120559524Y-68454819D02*
X120797619Y-68454819D01*
X120797619Y-68454819D02*
X120892857Y-68407200D01*
X120892857Y-68407200D02*
X120940476Y-68359580D01*
X120940476Y-68359580D02*
X120988095Y-68264342D01*
X120988095Y-68264342D02*
X120988095Y-68169104D01*
X120988095Y-68169104D02*
X120940476Y-68073866D01*
X120940476Y-68073866D02*
X120892857Y-68026247D01*
X120892857Y-68026247D02*
X120797619Y-67978628D01*
X120797619Y-67978628D02*
X120607143Y-67931009D01*
X120607143Y-67931009D02*
X120511905Y-67883390D01*
X120511905Y-67883390D02*
X120464286Y-67835771D01*
X120464286Y-67835771D02*
X120416667Y-67740533D01*
X120416667Y-67740533D02*
X120416667Y-67645295D01*
X120416667Y-67645295D02*
X120464286Y-67550057D01*
X120464286Y-67550057D02*
X120511905Y-67502438D01*
X120511905Y-67502438D02*
X120607143Y-67454819D01*
X120607143Y-67454819D02*
X120845238Y-67454819D01*
X120845238Y-67454819D02*
X120988095Y-67502438D01*
X121321429Y-67454819D02*
X121559524Y-68454819D01*
X121559524Y-68454819D02*
X121750000Y-67740533D01*
X121750000Y-67740533D02*
X121940476Y-68454819D01*
X121940476Y-68454819D02*
X122178572Y-67454819D01*
X122511905Y-67550057D02*
X122559524Y-67502438D01*
X122559524Y-67502438D02*
X122654762Y-67454819D01*
X122654762Y-67454819D02*
X122892857Y-67454819D01*
X122892857Y-67454819D02*
X122988095Y-67502438D01*
X122988095Y-67502438D02*
X123035714Y-67550057D01*
X123035714Y-67550057D02*
X123083333Y-67645295D01*
X123083333Y-67645295D02*
X123083333Y-67740533D01*
X123083333Y-67740533D02*
X123035714Y-67883390D01*
X123035714Y-67883390D02*
X122464286Y-68454819D01*
X122464286Y-68454819D02*
X123083333Y-68454819D01*
X133666666Y-149504819D02*
X133333333Y-149028628D01*
X133095238Y-149504819D02*
X133095238Y-148504819D01*
X133095238Y-148504819D02*
X133476190Y-148504819D01*
X133476190Y-148504819D02*
X133571428Y-148552438D01*
X133571428Y-148552438D02*
X133619047Y-148600057D01*
X133619047Y-148600057D02*
X133666666Y-148695295D01*
X133666666Y-148695295D02*
X133666666Y-148838152D01*
X133666666Y-148838152D02*
X133619047Y-148933390D01*
X133619047Y-148933390D02*
X133571428Y-148981009D01*
X133571428Y-148981009D02*
X133476190Y-149028628D01*
X133476190Y-149028628D02*
X133095238Y-149028628D01*
X134095238Y-148981009D02*
X134428571Y-148981009D01*
X134571428Y-149504819D02*
X134095238Y-149504819D01*
X134095238Y-149504819D02*
X134095238Y-148504819D01*
X134095238Y-148504819D02*
X134571428Y-148504819D01*
X135333333Y-148981009D02*
X135000000Y-148981009D01*
X135000000Y-149504819D02*
X135000000Y-148504819D01*
X135000000Y-148504819D02*
X135476190Y-148504819D01*
X136000000Y-148504819D02*
X136000000Y-148742914D01*
X135761905Y-148647676D02*
X136000000Y-148742914D01*
X136000000Y-148742914D02*
X136238095Y-148647676D01*
X135857143Y-148933390D02*
X136000000Y-148742914D01*
X136000000Y-148742914D02*
X136142857Y-148933390D01*
X136761905Y-148504819D02*
X136761905Y-148742914D01*
X136523810Y-148647676D02*
X136761905Y-148742914D01*
X136761905Y-148742914D02*
X137000000Y-148647676D01*
X136619048Y-148933390D02*
X136761905Y-148742914D01*
X136761905Y-148742914D02*
X136904762Y-148933390D01*
X125166667Y-45657200D02*
X125309524Y-45704819D01*
X125309524Y-45704819D02*
X125547619Y-45704819D01*
X125547619Y-45704819D02*
X125642857Y-45657200D01*
X125642857Y-45657200D02*
X125690476Y-45609580D01*
X125690476Y-45609580D02*
X125738095Y-45514342D01*
X125738095Y-45514342D02*
X125738095Y-45419104D01*
X125738095Y-45419104D02*
X125690476Y-45323866D01*
X125690476Y-45323866D02*
X125642857Y-45276247D01*
X125642857Y-45276247D02*
X125547619Y-45228628D01*
X125547619Y-45228628D02*
X125357143Y-45181009D01*
X125357143Y-45181009D02*
X125261905Y-45133390D01*
X125261905Y-45133390D02*
X125214286Y-45085771D01*
X125214286Y-45085771D02*
X125166667Y-44990533D01*
X125166667Y-44990533D02*
X125166667Y-44895295D01*
X125166667Y-44895295D02*
X125214286Y-44800057D01*
X125214286Y-44800057D02*
X125261905Y-44752438D01*
X125261905Y-44752438D02*
X125357143Y-44704819D01*
X125357143Y-44704819D02*
X125595238Y-44704819D01*
X125595238Y-44704819D02*
X125738095Y-44752438D01*
X126071429Y-44704819D02*
X126309524Y-45704819D01*
X126309524Y-45704819D02*
X126500000Y-44990533D01*
X126500000Y-44990533D02*
X126690476Y-45704819D01*
X126690476Y-45704819D02*
X126928572Y-44704819D01*
X127833333Y-45704819D02*
X127261905Y-45704819D01*
X127547619Y-45704819D02*
X127547619Y-44704819D01*
X127547619Y-44704819D02*
X127452381Y-44847676D01*
X127452381Y-44847676D02*
X127357143Y-44942914D01*
X127357143Y-44942914D02*
X127261905Y-44990533D01*
X135256905Y-36994819D02*
X135256905Y-35994819D01*
X135256905Y-35994819D02*
X135495000Y-35994819D01*
X135495000Y-35994819D02*
X135637857Y-36042438D01*
X135637857Y-36042438D02*
X135733095Y-36137676D01*
X135733095Y-36137676D02*
X135780714Y-36232914D01*
X135780714Y-36232914D02*
X135828333Y-36423390D01*
X135828333Y-36423390D02*
X135828333Y-36566247D01*
X135828333Y-36566247D02*
X135780714Y-36756723D01*
X135780714Y-36756723D02*
X135733095Y-36851961D01*
X135733095Y-36851961D02*
X135637857Y-36947200D01*
X135637857Y-36947200D02*
X135495000Y-36994819D01*
X135495000Y-36994819D02*
X135256905Y-36994819D01*
X136209286Y-36090057D02*
X136256905Y-36042438D01*
X136256905Y-36042438D02*
X136352143Y-35994819D01*
X136352143Y-35994819D02*
X136590238Y-35994819D01*
X136590238Y-35994819D02*
X136685476Y-36042438D01*
X136685476Y-36042438D02*
X136733095Y-36090057D01*
X136733095Y-36090057D02*
X136780714Y-36185295D01*
X136780714Y-36185295D02*
X136780714Y-36280533D01*
X136780714Y-36280533D02*
X136733095Y-36423390D01*
X136733095Y-36423390D02*
X136161667Y-36994819D01*
X136161667Y-36994819D02*
X136780714Y-36994819D01*
X122643333Y-57084819D02*
X122310000Y-56608628D01*
X122071905Y-57084819D02*
X122071905Y-56084819D01*
X122071905Y-56084819D02*
X122452857Y-56084819D01*
X122452857Y-56084819D02*
X122548095Y-56132438D01*
X122548095Y-56132438D02*
X122595714Y-56180057D01*
X122595714Y-56180057D02*
X122643333Y-56275295D01*
X122643333Y-56275295D02*
X122643333Y-56418152D01*
X122643333Y-56418152D02*
X122595714Y-56513390D01*
X122595714Y-56513390D02*
X122548095Y-56561009D01*
X122548095Y-56561009D02*
X122452857Y-56608628D01*
X122452857Y-56608628D02*
X122071905Y-56608628D01*
X123024286Y-56180057D02*
X123071905Y-56132438D01*
X123071905Y-56132438D02*
X123167143Y-56084819D01*
X123167143Y-56084819D02*
X123405238Y-56084819D01*
X123405238Y-56084819D02*
X123500476Y-56132438D01*
X123500476Y-56132438D02*
X123548095Y-56180057D01*
X123548095Y-56180057D02*
X123595714Y-56275295D01*
X123595714Y-56275295D02*
X123595714Y-56370533D01*
X123595714Y-56370533D02*
X123548095Y-56513390D01*
X123548095Y-56513390D02*
X122976667Y-57084819D01*
X122976667Y-57084819D02*
X123595714Y-57084819D01*
X114756905Y-38994819D02*
X114756905Y-37994819D01*
X114756905Y-37994819D02*
X114995000Y-37994819D01*
X114995000Y-37994819D02*
X115137857Y-38042438D01*
X115137857Y-38042438D02*
X115233095Y-38137676D01*
X115233095Y-38137676D02*
X115280714Y-38232914D01*
X115280714Y-38232914D02*
X115328333Y-38423390D01*
X115328333Y-38423390D02*
X115328333Y-38566247D01*
X115328333Y-38566247D02*
X115280714Y-38756723D01*
X115280714Y-38756723D02*
X115233095Y-38851961D01*
X115233095Y-38851961D02*
X115137857Y-38947200D01*
X115137857Y-38947200D02*
X114995000Y-38994819D01*
X114995000Y-38994819D02*
X114756905Y-38994819D01*
X116280714Y-38994819D02*
X115709286Y-38994819D01*
X115995000Y-38994819D02*
X115995000Y-37994819D01*
X115995000Y-37994819D02*
X115899762Y-38137676D01*
X115899762Y-38137676D02*
X115804524Y-38232914D01*
X115804524Y-38232914D02*
X115709286Y-38280533D01*
X132643333Y-57084819D02*
X132310000Y-56608628D01*
X132071905Y-57084819D02*
X132071905Y-56084819D01*
X132071905Y-56084819D02*
X132452857Y-56084819D01*
X132452857Y-56084819D02*
X132548095Y-56132438D01*
X132548095Y-56132438D02*
X132595714Y-56180057D01*
X132595714Y-56180057D02*
X132643333Y-56275295D01*
X132643333Y-56275295D02*
X132643333Y-56418152D01*
X132643333Y-56418152D02*
X132595714Y-56513390D01*
X132595714Y-56513390D02*
X132548095Y-56561009D01*
X132548095Y-56561009D02*
X132452857Y-56608628D01*
X132452857Y-56608628D02*
X132071905Y-56608628D01*
X133595714Y-57084819D02*
X133024286Y-57084819D01*
X133310000Y-57084819D02*
X133310000Y-56084819D01*
X133310000Y-56084819D02*
X133214762Y-56227676D01*
X133214762Y-56227676D02*
X133119524Y-56322914D01*
X133119524Y-56322914D02*
X133024286Y-56370533D01*
D14*
%TO.C,R3*%
X101960000Y-161370000D02*
X101960000Y-161040000D01*
X101960000Y-158630000D02*
X101960000Y-158960000D01*
X95420000Y-161370000D02*
X101960000Y-161370000D01*
X95420000Y-161040000D02*
X95420000Y-161370000D01*
X95420000Y-158960000D02*
X95420000Y-158630000D01*
X95420000Y-158630000D02*
X101960000Y-158630000D01*
%TO.C,R5*%
X72080000Y-156370000D02*
X72080000Y-156040000D01*
X72080000Y-153630000D02*
X72080000Y-153960000D01*
X65540000Y-156370000D02*
X72080000Y-156370000D01*
X65540000Y-156040000D02*
X65540000Y-156370000D01*
X65540000Y-153960000D02*
X65540000Y-153630000D01*
X65540000Y-153630000D02*
X72080000Y-153630000D01*
%TO.C,R4*%
X65540000Y-149580000D02*
X72080000Y-149580000D01*
X65540000Y-149910000D02*
X65540000Y-149580000D01*
X65540000Y-151990000D02*
X65540000Y-152320000D01*
X65540000Y-152320000D02*
X72080000Y-152320000D01*
X72080000Y-149580000D02*
X72080000Y-149910000D01*
X72080000Y-152320000D02*
X72080000Y-151990000D01*
%TO.C,M1*%
X113400000Y-102925000D02*
X114750000Y-102925000D01*
X113400000Y-103275000D02*
X113400000Y-102925000D01*
X113400000Y-110175000D02*
X113400000Y-103275000D01*
X113400000Y-110775000D02*
X114400000Y-110775000D01*
X113400000Y-114075000D02*
X113400000Y-110775000D01*
X114400000Y-110175000D02*
X113400000Y-110175000D01*
X114400000Y-110775000D02*
X114400000Y-110175000D01*
X114750000Y-102875000D02*
X116850000Y-102875000D01*
X114750000Y-102925000D02*
X114750000Y-102875000D01*
X116850000Y-102875000D02*
X116850000Y-102925000D01*
X116850000Y-102925000D02*
X118200000Y-102925000D01*
X117200000Y-110175000D02*
X117200000Y-110775000D01*
X117200000Y-110775000D02*
X118200000Y-110775000D01*
X118200000Y-102925000D02*
X118200000Y-103275000D01*
X118200000Y-103275000D02*
X118200000Y-110175000D01*
X118200000Y-110175000D02*
X117200000Y-110175000D01*
X118200000Y-110775000D02*
X118200000Y-114075000D01*
X118200000Y-114075000D02*
X113400000Y-114075000D01*
%TO.C,D3*%
X89710000Y-88764000D02*
X89710000Y-88920000D01*
X89710000Y-91080000D02*
X89710000Y-91236000D01*
X89710000Y-88764484D02*
G75*
G02*
X92941437Y-88920000I1560000J-1235516D01*
G01*
X90229039Y-88920000D02*
G75*
G02*
X92310961Y-88920000I1040961J-1080000D01*
G01*
X92310961Y-91080000D02*
G75*
G02*
X90229039Y-91080000I-1040961J1080000D01*
G01*
X92941437Y-91080000D02*
G75*
G02*
X89710000Y-91235516I-1671437J1080000D01*
G01*
%TO.C,D4*%
X79710000Y-113764000D02*
X79710000Y-113920000D01*
X79710000Y-116080000D02*
X79710000Y-116236000D01*
X79710000Y-113764484D02*
G75*
G02*
X82941437Y-113920000I1560000J-1235516D01*
G01*
X80229039Y-113920000D02*
G75*
G02*
X82310961Y-113920000I1040961J-1080000D01*
G01*
X82310961Y-116080000D02*
G75*
G02*
X80229039Y-116080000I-1040961J1080000D01*
G01*
X82941437Y-116080000D02*
G75*
G02*
X79710000Y-116235516I-1671437J1080000D01*
G01*
%TO.C,C1*%
X117760000Y-167760000D02*
X117760000Y-166060000D01*
X117760000Y-162240000D02*
X117760000Y-163940000D01*
X113304437Y-167760000D02*
X117760000Y-167760000D01*
X113304437Y-162240000D02*
X117760000Y-162240000D01*
X112240000Y-166695563D02*
X113304437Y-167760000D01*
X112240000Y-166695563D02*
X112240000Y-166060000D01*
X112240000Y-163304437D02*
X113304437Y-162240000D01*
X112240000Y-163304437D02*
X112240000Y-163940000D01*
X111687500Y-163002500D02*
X111687500Y-163627500D01*
X111375000Y-163315000D02*
X112000000Y-163315000D01*
%TO.C,SW2*%
X118250000Y-71500000D02*
X118250000Y-73000000D01*
X119500000Y-75500000D02*
X124000000Y-75500000D01*
X124000000Y-69000000D02*
X119500000Y-69000000D01*
X125250000Y-73000000D02*
X125250000Y-71500000D01*
%TO.C,SW1*%
X123000000Y-48750000D02*
X123000000Y-50250000D01*
X124250000Y-52750000D02*
X128750000Y-52750000D01*
X128750000Y-46250000D02*
X124250000Y-46250000D01*
X130000000Y-50250000D02*
X130000000Y-48750000D01*
%TO.C,D2*%
X133435000Y-38955000D02*
X133435000Y-42045000D01*
X133435000Y-38955170D02*
G75*
G02*
X138985000Y-40500000I2560000J-1544830D01*
G01*
X138985000Y-40500000D02*
G75*
G02*
X133435000Y-42044830I-2990000J0D01*
G01*
X138495000Y-40500000D02*
G75*
G02*
X133495000Y-40500000I-2500000J0D01*
G01*
X133495000Y-40500000D02*
G75*
G02*
X138495000Y-40500000I2500000J0D01*
G01*
%TO.C,R2*%
X119540000Y-57630000D02*
X126080000Y-57630000D01*
X119540000Y-57960000D02*
X119540000Y-57630000D01*
X119540000Y-60040000D02*
X119540000Y-60370000D01*
X119540000Y-60370000D02*
X126080000Y-60370000D01*
X126080000Y-57630000D02*
X126080000Y-57960000D01*
X126080000Y-60370000D02*
X126080000Y-60040000D01*
%TO.C,D1*%
X112935000Y-40955000D02*
X112935000Y-44045000D01*
X112935000Y-40955170D02*
G75*
G02*
X118485000Y-42500000I2560000J-1544830D01*
G01*
X118485000Y-42500000D02*
G75*
G02*
X112935000Y-44044830I-2990000J0D01*
G01*
X117995000Y-42500000D02*
G75*
G02*
X112995000Y-42500000I-2500000J0D01*
G01*
X112995000Y-42500000D02*
G75*
G02*
X117995000Y-42500000I2500000J0D01*
G01*
%TO.C,R1*%
X129540000Y-57630000D02*
X136080000Y-57630000D01*
X129540000Y-57960000D02*
X129540000Y-57630000D01*
X129540000Y-60040000D02*
X129540000Y-60370000D01*
X129540000Y-60370000D02*
X136080000Y-60370000D01*
X136080000Y-57630000D02*
X136080000Y-57960000D01*
X136080000Y-60370000D02*
X136080000Y-60040000D01*
%TD*%
M02*
