M48
; DRILL file {KiCad 9.0.2} date 2025-06-05T12:56:15-0400
; FORMAT={-:-/ absolute / metric / decimal}
; #@! TF.CreationDate,2025-06-05T12:56:15-04:00
; #@! TF.GenerationSoftware,Kicad,Pcbnew,9.0.2
; #@! TF.FileFunction,Plated,1,2,PTH
FMAT,2
METRIC
; #@! TA.AperFunction,Plated,PTH,ViaDrill
T1C0.300
; #@! TA.AperFunction,Plated,PTH,ComponentDrill
T2C0.800
; #@! TA.AperFunction,Plated,PTH,ComponentDrill
T3C0.900
; #@! TA.AperFunction,Plated,PTH,ComponentDrill
T4C1.100
%
G90
G05
T1
X83.04Y-113.03
X92.5Y-159.05
X92.5Y-159.05
X115.0Y-90.0
X118.5Y-74.5
X118.5Y-74.5
X118.5Y-74.5
X118.5Y-74.5
X118.59Y-108.435
X119.58Y-165.75
X123.11Y-73.91
X123.98Y-114.525
X123.98Y-119.525
X145.0Y-100.95
X145.0Y-100.95
T2
X65.0Y-150.95
X65.0Y-155.0
X72.62Y-150.95
X72.62Y-155.0
X94.88Y-160.0
X102.5Y-160.0
X119.0Y-59.0
X126.62Y-59.0
X129.0Y-59.0
X136.62Y-59.0
T3
X80.0Y-115.0
X82.54Y-115.0
X90.0Y-90.0
X92.54Y-90.0
X114.225Y-42.5
X116.765Y-42.5
X134.725Y-40.5
X137.265Y-40.5
T4
X118.5Y-70.0
X118.5Y-74.5
X123.25Y-47.25
X123.25Y-51.75
X125.0Y-70.0
X125.0Y-74.5
X129.75Y-47.25
X129.75Y-51.75
M30
